<mxfile host="app.diagrams.net" agent="Mozilla/5.0 (Windows NT 10.0; Win64; x64) AppleWebKit/537.36 (KHTML, like Gecko) Chrome/127.0.0.0 Safari/537.36 Edg/127.0.0.0" version="24.7.7">
  <diagram name="Seite-1" id="_x_HtDCAAg9Aly_8cuVe">
    <mxGraphModel dx="679" dy="434" grid="1" gridSize="10" guides="1" tooltips="1" connect="1" arrows="1" fold="1" page="1" pageScale="1" pageWidth="827" pageHeight="1169" math="0" shadow="0">
      <root>
        <mxCell id="0" />
        <mxCell id="1" parent="0" />
        <mxCell id="9ZzvRII4eZnpE7S6dJO5-1" value="" style="shape=image;verticalLabelPosition=bottom;labelBackgroundColor=default;verticalAlign=top;aspect=fixed;imageAspect=0;image=data:image/png,iVBORw0KGgoAAAANSUhEUgAAAiMAAAC+CAIAAABoL5hSAAAgAElEQVR4Aexdh38S5////Set3cuo1VrrqFbb2r1tq7XW1tr5bd1arSuamL0DZBASCNl7h+y9N2QnJBAg7L3hjt/ruSOEACEkGiX28npeetwd9zz3eY7nfZ/1/vyfBfvDJIBJAJMAJgFMAuspgf9bz4tj18YkgEkAkwAmAUwCFgxpsIcAkwAmAUwCmATWVwIY0qyvfLGrYxLAJIBJAJMAhjTYM4BJAJMAJgFMAusrAQxp1le+j+HVYQtshmAIfgxvDbslTAKYBNZHAhjSrI9cH7+rIgBj1pkMCq18UqAVKGEz9PjdJXZHmAQwCayHBDCkWQ+pPibXhCHYbDCZtEaDUqcTqYR9cwxia/v1orZrRdMFA0a14TG5T+w2MAlgElhnCWBIs84C3oiXhy1mo9mo0qs4svl25lRe/2BMQ/u/RQ1/ZlafJFceJdGOkVou5as4MhjGbGgbcYKxMWMSeNgSwJDmYUvcC/uDYRgymc16k1FtMMi1ap6cWTzUdbe89XJB41/Zdb+kV5+k0L4jVX6bZGv1v6Xzu2Yho9kLbwcbEiYBTALeJgEMabxtRh7qeGAzbNabtCKVZJg3Vzc+ltrZ7V/RdC639mcq7Rip8ugitNgwBt2oPUWdLhgw6YwPdbhYZ5gEMAlsTAlgSLMx522to4YhGDKaUdeLVqQSD3GnCwY6bpY0n8tt+DOz9mdq1fcpbgDGhjfVP5DpcU0GhXatA8G+h0kAk8B/SAIY0vwnJhsFGKPaoObIhb2smVL6QHR9y8U8gC6nEPXFzjJmgxM3G7TvkjtulWj4SsxV8594gLCbxCRwfxLAkOb+5OfF34bMkFlnNGkMerlWPiWcKaH3hdW0XiloOpNd/1tGzUkK7egS14sbXHF5qOlsjnxahMU6e/EjgA0Nk4C3SABDGm+ZiQczDjTrxWA2KvWySSGLNjye1tUfWYe6XqqOe2QZc4krzjtrf6ZO5fWbNFis84OZOuwqmAQeYwlgSLPhJxdYxkxmk85oVOpB1ks/ezytq+NWSfOFvPrfM2pPU9HQZGeouM89tGOk9mtFOrF6A0kQBmF2MGSGQKyd0QyyhfQmIDqd0ag1LDaNwahZ+KgzmnRGcJrBZDaaIZMZwigSNtCUY0P1DglgSOMd87CGUcAWyGg2qvVqrlxM586UMYZirVkvNT+mgsixVbpe1nB+w59Z8kmhlzLTAPUOCX8wmIw6o0Gj1yt1KpFSxpYIJ+Z5Q2x2N5PZMjFRNzJKGxou7R8q7B3M6xrI6erP7uzL6ujP7uzP6RrK72YU945UDIzXMKabx1jdzHk6RzwtUPLleqXWqDWYDCbIBGHOqjU8v9hX/lMSwJBm40w3bIFMkDXrRaHT8JVztWMg6+VKQfPZnPrfMqp/pDwcgLFhUt3pNFbVqFlvelRCRPQ5yGyHJVq5RiNVq4RKKUvM7mGOlA92kZvrQsqKL2dk/pKUeiKefAyX8nUM6cso4mcRCZ+ExX0YSng/GH84CPdOYOyhgNhD92IOLrRDAbFvB+DeCSQcDo57PyTh4zDiZxHJX0WlfBub+n1c9m+kytv5nclNk/UjYqZQLVbq5FqDWm/SGyEzZMFSWh/VM4H165USwJDGK6dl6aDQd3ODQicZmZ+rHR+ndvUGVzefz6v7Jc191osNEtZpo+YkZSS53ajSLx3v+n4COUBGYC3Uq3QKnow/zGW2TgyX9ndTWhqiKitu5eWdSaWeiEv8LILwfnDsoXuRe++EvX4zeNu1gFf+8X/5iv+LV/xeuOz3/KW7z1+689zFO89euPPsBd9nzi9pTy/5eOfZ88hpF+8+f8nv+Uv+L1y+99KVgM1XQ3bciNx7B/dOIPGziMzTSZW+BR2kxvEahnB8XifXmo1mTNdZ30cBu/rGkQCGNN44V2hQMvAfqPQ6sVo0yJkuGOzyLWs+b816qT4BWGHWCT88v2zV9ym9IdU6sXpdllTYAkMQ4MXRGQ1qvU6h1UjVynk5p392sKCnPqw87y8K9QQh+Uh0wifh+MNB0W/5h+/xDXntRuCWa/deuoIAyQXfZ8/7Pn3+9lPnQNt07pa1nb216eztJ8/efvIcaJvO+YJ23r7d2XTeodkdPef71Dnfp87fefrC3acv3H32gt8LlwJ9roa9fiv6gH/8h6GpxwnlN3LHqhlaqQaGMB5Sb/yJYWN6yBLAkOYhC9xdd8BdbTSbNAYVRybsZc+WMYaJLZ2+ZY1/Za0t68VzzFjbmbRjpLZ/CtUc2YN01QAjIVBZtAqNdFaEWMAGOpKbagJK8s+mko/Gxn0QEn3AP+z1W4Fbrvm/fNnvhUt3n7to1UgQOLm96eztTWdvPWltdnCCgseFu5su3H3qot9Tl/yfvuz/9JV7T1+598yVgGf+QdrVgGeuBlrbtcBnbA3sDADtn4BnkK88fcX/6ct+T1+6+9TFu09dBKjzzEX/F68Ebb0eeygg+zdSS1wtu5upV2odYRggKAhMsGCscRYgChCObwQBGsDjZf6Pmh2tdmCrHMwgeeAhSuIh9I4hjbul/yEcg83AzWDSGAxKnZonn61gDOEb264WNp3Nqf89o+an1Acbmrw2RHHzrYY/M3lt02bDGl01COUaZNKbDBqgtaglKumsaKKW0RRblX+GQvkOn/R5JOH94OgDfqG7bgVuveb/4mUEVy74PnUe0VGAdoKCyu0nz/o+ec73SaCa3EGwBMAJwJLLAB6e/SfwuWtBz/0b/Nz1kOevhzx/I/SFm2Ev3Ax/8Vb4i7ciXvSNeMk34qU7kYvtbuRLd6OQFvnSXdt+cNqLvuEv3g5/8XbYi7fCX74d7uMb+erdqF3+hIPB+X9T+7M6OQMsMVMIogZUOuCzsVgsaMybCUKCOIwavlLFlpm0xgcCNjAMm/RGnUKrky9peoXOpDd5uGBBZghVHB0u4uKjQqtX6oBHSmeETGtZEGEINuqMOoVOJVAKRnlTjWOM0n56cd9YFWOud1bOkWqlGoPaAJnWzqoHmcx6pc5x8AqtQWNwBP7lf+SQGdIrnC6yVMjWLqwyMZj0JuuML39Z2xHIDBm1Bp1Mq+QpeENzE3UjjJJ+elHfGI3O7mbK5iSIHPRmo9n9JMIQ7DB3eoXOqDG4f/+DQe9G0Pu8Yp7OmawfZZT2DxX1jdKGWF1MGXuxd88lZrs15w0MaZxlsv57bFkvKr18WsRrnR5P7x6IrG++kFd7Oq36BPk+cyrdAMMDP1T9A3kwtt6g0K1KagjAALOYRqzij3In6oa7U1tqAkpy/iQnfRGJezsw/I3bgVuv+r905e7zwJXi+wywgN3adO4mwJUzt544Y7V9bTqH2Lgu3EUUFKCaPPtP4LMIolix5Fb4i7dRIEEA427Uy35RL/tFg+Yf/Ypd2+wfvdk/ZvM9W4vdfM/WbDtjNoOvxPgE4F8NStgdRv00vvRMTmtU7WT1iGicrxIojFq7XziivgB0Ueq1ArWCJZOOCYUDXEHPnGiAq5dq3a8FHorUqDNO1o3W3yuv9S2xb41BlVMNY568BMAwrOQrukktdX5l9ldwuV3nV94UWt2V2DJWzhCMzeuVes/vAoZBHQoZWzJaMlR/rzL3JIXyASH5UEzSW1FJB6JIB6NT3sVlfEWsuFLQR+6YZ3AMGv0aljnIZBZN8JtCqxzGX+df3kft0HvsVlTwZA1BlQ4XcfpYWutbWudf0RxR05vSPlk3KpkVGXUrvEOgcpDMiIZy+6pvlWQdSya/hyctlUPaF4llF/O6k9q4A2y9yp0cNBJ1N7nVfu4aAivoeb365X6VMPB0SmfFjPy+mtul2d8lU9536D027YvE0vO5XYktnF6WXqlbwyw4PL0Y0jgIZL0+omurNetFrBL2sceoXR23Slsu5jf8lV23blkvDxxaHC5IO0pquZinEShXfO0CHhetQa/UaSQqyYxwlEavDSnL/CUp+ZuY+A9Do9/yD9sFDGJ+L1y688wF1LMC3CpLjWBAX3kK4Irf05cQXLkK1JTnr4e8cCPsBQRUgFJigxP/mFf8Y165t9gQIFnAj4DYzZ42nE8gYXtI/OthiXsiSG9FZx4hNQfXTNWMCUf58jmZRqw2ao2IQQyxjIF8HcisNxvkOiVLKhkRiAZ4wl6uoHuO38meb2fNt7ME3XMqtgw23bcXB4YVXHnxmazENyMSdofbN+L+qMrLBWqxasVlAoZg8ZSg8LcM4puR9ldYbjtxX0TSgWjye7iso6SGIJpgdB7g60rGQMgMqYWqsYqh/FNp5PfwiXsi8K8Gxfo4TgFuS2D866GkgzFZ35La4xtlc1LTKjVmnULbn9aV8i7OYfyJe8IzvyUJxuY9gUYYhoWjfPJhx4s4XBP9mLgnnLgvkvRWNOUDQu4PlM7EZvmcFGC8KwsYDMNamWaydiT/FDXlndj4N8Jw24KcH0XclsC410NJb0VnfJ3UhquXoRd0tT7J56RFf2cS9y/OXfLbMTW3StVClfMAYBjWybXTjROFv2aQ341NcNP7zlDSgeiMI0kt0bVStgTox/fxhyHNfQjPk6/CFtgEmXRGnVglYfBmyxmDuMbO26UN/8uqeehByQ4g8aA+ggoCnTMuKwiAdzej2aDRK7gydjdzsKCnIbIy/1wq6Uh07NsBYTtvBWz+x+/FS0u1ljMLWgtw16PQ4vf0JeBQeQbRV4Dt6yawXL14O+Il38iXAa6gOgrAFaCIOC5e1j0+AWBdQ9uWQJytbQ3ELbYg3Fa7ti2IsD04YVdYyjuxxb9lNfrTBtO65zpm5CypTqY1Gxajy0BOqBkyaY16qVbNVcinJWIGX9jH4XfNzXcAaHFo/E62dFQAGdZuIEKfPpPeON04nvx2jMslO/PrJN7g3IpmKBiCRRP8nB/IYOlfTnqu9uO2BCa8EZZ3MnWkdAjoCq4WVnSckAkSTwtbImopH+E97AW3JTDpYFTllQJ294wnmpnt56jgySquFMS9FuJ8Lwl7IzoSGo3alTnIYRgWDPMSd0c4X8T9HtzWIOL+yLILuaz2aaDcLP0DC71CN5jdm/5VIv7VYPeXQo8CORyIKr+UP9c9CyxpTn8ytiTvNAW/ffFq8a+HVV4pVDm9/4HelTp6fn/GESLB7nw3w8BtCSTujyw9m8vqYK5qFhyGiSGNg0Du+yOa9YKWqgRZLwpO4yQ9rrn9enHzeeB6qf6RUnU82RO+5AeFBOt9nZqfUieyeqy0NAv+fL1Kp5GoRZMCRlFfpW8+9WR80ucRuHcCw/f4Bm371++Fy3eeAb4W11rLpguoux51rgQ/fx34VBAjWORLd6zmLztlZYmOYsUSK5DgtwbhtwXhXwWAEfdaaPzO0IRd4Ym7I4j7IpPejEo6EJ18MCb5UEzK27Ep7+LIh/G2RnmPQP0oPusIqfJiAT2rb76fI5uVqAVKvUJnNpiBfwV1vZiB68WkMWr4KvmEWDw0L+rnCnoBwPA7rOqLA8bYPgr7uUalu9XZk2dRLVQ2BNHid4W5XCyS344ZzOoxrsQYtGakQTslbA/O+Io4Ujpo1LqmJoJMkGhCQLtWRDoYjdsSuGSoPgG4rUH4V4PxrwbjtjqqOCiS5f+UNtM66Qk8AI8YBM/TOZSPCI4dIUiJ2xqY8z1ZPiddUa1ZM9KAu/MJSHgjrPCX9PkhDnBl2f0ZtYbJ2tGMI0l4Bz0GyCEQlQM4tFTVA3rerrCCU2msLqazbuE50hh1RmbzZNbRZEewd+x9yRzhfICWmfcTdbZtyhk77W7O3SaGNO6ks6pjIH4DWOR10lE+r3WaWTzUF1rdfD637tf06h82kutltcgEKgjgm/Ry4KoxGUyCUd5IxWAzvrrgQjrpq+jYg/dCdty49zISdoyaxUCo8dmbT5y59cTZW0+AUOM7m86j3nvEIHYt+Pl/Q5+/ifpXUGgBKgsCLUsWKeQnHesTgPMBSgl+WxDh1WAEUYCZK+GN8MS9wKCR8k4s5T186kdxaZ8mZn1Nyj9JLfk9q+J8fvXV4rrb5Y3+tObgmrbwuvboxk58cxehuTu+pTu+tZfUPl09LhoTqIVKe+eqlc/GYDaqDFqRWsmSycaEogGeoGfRMmbDEvcbgu45zbxyxSXPzUMIQ7BwnJ/7A2W5t+O4naHll/M1YpWbi6CrswudBll9CNuDCTtC7Bv+1SCcz5KVKHZzAH5bUO4PFGRhdXzphsyQlCWp8S1N2B2+ZAH1CcBtC0rcG572ZULuT5TcHylpXyQk7g13XmfjdoYW/ZE5T+d44mzXq3TdyS3xu0IdH5UFnYz8Hm6ybtR5vXYQkWuk8UEes+1LBELYEYLf5iQTn4C410MrrhQoeHL7KVZwZRX/5MfttBseIufE3eHUzxNyT1JyT6Wmf0MkHojEb3fEm/g3wiqvFim4cgdDpedIo+DJq24Ux7/u2HvC7vDUz+NzTpLzTqVmfJNEPBAFNKSlaBe/K6z8Qp50VuzQu4PclvuIIc1ykvFgP6K+oFkveqlGNiGYLhzsBFkveY1/Zdf/9pgDjA2QaN8ld94qVfMUMASpRcqagJKkLyKj3vSz6S6IM98aIXYTgZbbT1rDw9DAsKDnriHBYLfCQQzYnUjUGoZqLVbPCmIQA/oKUFaApoKqKTtDE94AJvLkt6JTDuNSP4xL/ywx80hSzrGU/B+pFWfzmgKqexLbRvIHmfWTvP450bhAOiWSzUjkbKmCI1fyFKp5hVqgVAtVGpFaI1ZrJUiTanRSLXC9mGELGpRshoHrxWDWA9eLTDLMR1wvHKvrxZV9zD3MzLez+J1s+ZTYfB8RVia9abJ6lHQwOnZh6QcmwYXt2M0BuC2BqR8T2D0z7tdolzoNYXtw+rfEhvCqFlydtcXWNUfX0G4VpX2ZmLg3AqggC8t37OaApANRHXFNzv52tUjVjm8A2szSgRHfjCz+O2ucNiwc40uYYglTLBjhjVcyis9mg4vbqT7gnRosc7ly7grx9DAES6ZFmUdJi1/3AUKwH2fivsiWyDq9coUYFpdIE7czJPdHSmNEtZ1Mapsiqsuu5FE+IsTvCrO/x1ifAPL7+OHCfpuqB5kgVieTdCjG/jTCayG5P6WOlg4JRxE5zIhF4/zphvHKqwXEfZHo4PHbghLeCM/8JolRPGBQOY7cQ6SBzBC7c8ax9x3BOSfIw4UDaO/SGbF4QjDTNEG7UUR8MxLVMvHbguJ3hWV8TRzK69XJtW5spG4WTQxp3AjH9aEF377JINdJhnmzFcOMxJauO+WNf2dbS1WuP+GYbZX3ko3Gv7MlDB5kgnRybQuhNnLvnbvPXUSjkJfqLgtBYs/+E/TsvwtufF/Uh49GgsXYLV5grbTXV3Ygysru8KT9USnvAFzJ+DKp4Kf0yosFjf60jtimwbTu8fIRdhuTT+fJZiUqvlIr0eiVOqPWaDYgzJjA6mVZbK5neHEvDMFmndEg12rmlQuuF+5yrpcVocXhBH4HWzIsAHVLl3dvLA7F1ZZGqq4LqLA5JPDbgogHoxL2hduvrQm7w1uiag1qdzwOLpEm/o2w6lsl8jkpiJ+2a2qxSjjG705qJb+Px21dXMTx24PzT1FVfIX97ZhNZnbXTPpXRHtjEc4nMOlAdHNEjXhKaNIbwTsyMilouLZ4WtiOayAdWoJMsT4BKe/G0nN63VsCjRrDWCUjaX+UDVrwrwYlHYq2Hydhe3DB6TQlX+H+3dwl0hD3RbZG1il4cnuBaOValUDB7WM1BNIS90XYUD92c0DC7vBa3zKN1MpCq1fru8mttvkCg/QJoH4aP9M6aVAj0WULcjAbzTKWuCuxJeUwLm5naPoRYmt0PW+QYz1t6cPgIdIYNPpeajvB3n3lE0D9JI7ZNG5AY9usPw3gW5WxJb0p7ZQPCKD3rxJbImo5fWy9ehVxhkvHaMGQxkEgrj9as160RoNSp5lXzFYMD+Eb22+WNF/I3RBZL+sNSKCCQC6oIGDSG8eq6Ph3g+4+fxFNmfRFLGNAd3n2n6Dn/g15/kYYyF+5E/Xy3eiX/WyxYdalwU5rIbwKPCsJbyC48nZs6oeE9C+I2UdTCn9Or71R2ktsn6SNzg9wJFMiOVuqnFdoRGqEecxg0pkg06Kv3vWMerAXhmCNSM3vneN3sQXdcwIPXC8OWLLiR9EAzyBfYwgpZILmGVzqp/E2XEncG0G7XlR2Jc9+LcO/GlRwOg0YPZZnK3CJNAm7w+v8y8E7rNMfZIZkLElj8BL/EM4nkPIBgTPAXtSfYAvQce+WxtmbazYHJO6NaAiolLEki2fadQGZISVX1pnYnLgnwt6AQ9gRUvRnpoInt0cyu++BTbVQ1RhYFf/6gtfKJyD5ndj6oIqEPeE27MH5BKYcBgY094ESLpEm6c2oTnyzwSlOGo18EY7yyy8sET5hR3D+aapyYcwaibrqVpG9qZOwI7jsUq5OpnHOrILMkGpePpjd3RBUyellqUUql+EAFovFQ6TRSDW1/uUOvZdeyNHKNM6gC5shlUA5mNtT61821zWjFirNRiz2zOFxe4AfEb5kg0qnmBbNt01P5fUPRte3XS2q+yWtyjv4YNYbQjy8Pu14ctfdcp1EDZkg3hA7+euYwFeu3kUCkQOfBZYxEIL80qLuEvOKXYSYT0DsFmDiwG8LtoskjqG8h8/4glj4c3rNteK28PpBavdU1RivD3jmNSK1Xqk36U3WVOq16gTunxTIDInG+A1+lV24ZmbFGK91dkXkWO0Jgl4OcNWg2Z3uR+N0VKfQ9VLawXKMaoE+AZQPCCMlQ4yC/qQDUbY1GucTmPpx3HTDuBvPxGqRxmKxgCSe2lF77SF2cwDpreixSrptQTQZTKyOafJ7ONtgUINexpEkbj/bdprTnQGvvnhSWPRH5pL4KJ8A0tsxw6WDy34RtkimRDknFiPo8NuDi/7KYnUw075IsOFx7OYAwmshldcK3RuCVoU06C3oZNqe5PbEvQszgqgsaZ8nyGYl6FKuEiiL/s60j2kmvBZS8W/BchonSMnU6DVStUtItsnNQ6RRi1Rll/PslUvCjuCKq/kGjWt9F4Zhg8agEavdQ7JtGO43MJ1miXxQyxjgS1bp9TKNak7KLKF33ilruZTf+Hc28O2ffNh8yR6u9Y/4tKOkhj+zhL1syGiW82Ql17LDd94OeuFa6As3I17yjQK6izWpBbUYADc+4m4hbA+J2xkKklQORlPew6d/lph9NKX496zmoOrhvAFeL1s6JVJwZGqhUifTGjWGh0lbCcOwbFZSdiE/7XNi0S+Z9LQedt0kt2VmtXDi5nx+F3DVuAwQX/JcOn2AYVjKkpSezSHssMby4rcF5f1AEYzN8wbnso4l2y8oxDcjW2Pql83jQ+K1nCMC3Og0FguoWMHpY5HeirbpCrGbA4j7IwfzemzpL1qppgPfmPDGoj6BGJTCmqNq9MoVzP1ITkznklV7cwBhe3DJ39laqQsNAESj6E1jlQzi/kgbsJEORjOK+lUCRXNkjb2eh/MJTP8icZ7BcbOGrgFp9CrdcGE/GICdBZjyPkE8KUCDAtRCZenFHPupwW0JzPg6aZ7OtY86cZrtFXZ4ijRiVcW/hfZRZ0jvRN7QnEFjgJZXeVfo3rPDGNJY5QSSIXRGrUglGeGxa0bpeJD10nQ2x+p6OZr0iJdyr/f91J5Om60YBiCtNYxX0xM/DA955UbES77Rm/3RHx7wuGwJxCERYnE7QxN2h5MORFPeJ2QdIZX+md1wt7KH2DZePjLfNydnS7USjVFjAK9yK+UDevacr/EsrUTTHtOQ/E4scX9UxldJtTfKRrIHOE1MN+Cx2kOioXmzU9bFisOFTOa5rpnUT+JsHoi410Nr75RpZVoFT1Z1vdg+ugn/alDOD2Qp2/pm7XzxNeg0ZqCvMJMOLEGapANR9MJeK9LAFvmctOxcbtwCFiIvGYHk9/FzfbPuX9IBkpkg3uBcyuEl+lAsghCC8Xnnr8MwrOIrwTv7QkoQfltQ1ncpMpbEbDQDT/jbi3ETQP06GDOY2e3G67MWpFHqBnN6iG/aIQ2iaEqmRahOo5VrGyOqlihqmwPid4WVns0drxyWzUkNa3qX8hBpdAptS2wtYfuSNKP410OL/5c1Wk6XsiUGNWC+sY+Uc35U1rznv4s0gCcYyXoBTCFCFb9zhh7fgmS9AL7kmscu62W9kbLmR8pYaqcJ4ZWSc6T5Z6hhr94Of+V2jM89/NYgxCwWStwXmfJ2LPXj+MyvSQWn0hr9aCP5g7x+jmxGouQptBKN9Vl/pOhi/1sy6YzMhonUj+Pjd4cn7I1IfheX811Kc1DNVPkop4nJa3sA9jRBD0cn1qz2543E8raCuOEF01nyO7ETNSNmo1mv0tML+hzWO9Kh6OHSAZu2YX+Py0U5u9dptHJtb1rHou0OGUby2zFTjeNoNB0Mw6IJgYN2hd8enPezY9SAw2DQj4AgZ15e+L8Mew0gdnMA5QP8dKMLS6DZYGJ3Mcnv4WxhXWD8fhWoiUw2Kyn4Nd1+iQfxDjdKtBKNy95RpjrnzM3l/DTgIsiAG4Oq7HObcNsCs46SQPoO8kibDKbxqmGgqNkFEAMugF2hlPcJOd+l1PiVMUr6BaPzwD6s0Bm1HinxHiKNyWCaqBlx7N0nMG5nKOV9fPZ3KdV3ShhF/YIRnrX3NcHecvL8zyENmvViUhtUc9L5NiazeGgwtqHlIiiE/Hhnvaw30lR9n9IXXAWKPcMWnULbGF0Vvdc/6tW7hF0hpAPRqR8Qso+mVF4oaA2ro2f1sdpmpEwxIHHReHXdMBgCBrS8k9SEvRHxu8NRvEk5jC/8JbMb3zxDewDOG37XnHJWtipXDTDrsSV5P1Ntccb47UF5p1IVXJkFtkBmSDjOT/8y0d4zEfdaSOU/hRqJ2qWOuCqdBvBjag1z3TP5p6j2azduS2DaZwniKSG6qoIMygFOyruxtqU/Fnl/r7pZrJO5iDJwXqF0CrACYMUAACAASURBVG1zVPWSWKnNAclvx9CzXUSg6eTa7qSWRegFZ8Yy8vvRfE+NWN0SWbsEA7YGZhwhCsf5y2H8qnQayAzplNqxSgb1s3jbpMRuDojbGVp6Ngfk6iN/MAxLmOKC02n2crOZ2lD6maS3olI/iss/ndYQSBvK7uH2szUSNXBNLe+M9BBpLDAsZYoL/8gg7FhkE1jS+87QpANI7z9T6wMqBjK7OX0stXiF3p0nzuWe/wDSwEgmhM5oVBuQrBc+yKkMqW77p7Dxb5D1UnOSsoEYLdcbMNZ+/aOk5gt5yhkxuhIxSvpTjsSSPo7OOZHS6E8bK6bz6Vw5S6oWgjR74MyHlv/puHxUH9FOrURT70cjHohGkQb8uyeceCCa+klC6Z/ZdGoPu37qfoIFEFoa4arqlgL7ZNUw6dAiAw3xzch2XIM1RwS2aKWahiCavQENtzUw62gySH50lb7jEmnid4VVXS+WTInUQpW1CVRKrpw3xOkmt2YdTQbXt3s3j98VRrteBMAM+QO5I63TDo6WxL0RTaHVbjxG9pNs0Bj6MzuXpBkiWTs9SW2OLnTYopiTlZ1b9FrF+gSkf0kUjIDIexC/oDVMVI2AQAmbB8UngPhmZDe5FUSZu/pziTTEfZEtobWyGbFNJiqBUj4nZXUymyNr0r5ItNnu0I6S9ke1RTfY369BpRsuGqB8SMAvzUZaHBgS2U/YHpy4Jzz5nZj0LxNLz+WOVdJB7Nky3EWeIo3FYlDrx8rp1E/jHTRFh97xaO9vx6R/kVjyd/ZI2SDSOxZ75upBAQl3ZsisMxnkWsnIPIs2MkLusGW9IHwwj76S2NqXda9029T/ms6uGjXrgJoimREOZHdN1AyLJwQasdoECCjXwjDvcm4f5k6jxsDI6U8+jFtEGkS5AXizPyrjy6T62xWjeYNzjdO8NkdyM498Nh0s8dC8UWVw89LqcL8qvqL2TpltCcb5BFI/iWc2TtqMY0hG5wiS0blAAQfifWPouX22LEL7a7pEGsAEszs89QPAymNrqR/GkQ/jE/dF2PxD1kXKJ5DyIWG0bMjGVmI2mKZqxxzCAYj7Itti6lfMmkTHZtQZGSWD9ooICDp4M6qT0OQQZwyZIU4vi/w+zqbGxb0WQvu3UKewKk8Ihagw45sk2wkgCm5rYO7JVAXPdTaoS6TBbQ0k7otM/SDOJhDqR/GpH8alvBObsHtJGhMaZZf5DWmul2UfLAfDsFqi7qN2pn2R6FKzsV/00XwywvZg8vv4quvFcz0PgPdMK1UPZHSnf0W0xZI49LjkIyCWDSYfxlX+U8jqZC4HdfbP0nLbj5VOY7WMaY3A9SJSCbpn6YSmjhslzRfyGv7IrP2ZCgDGK9fox2NUoIJAVL0BySI2G806hRah0F/C+7Tcg+i1+81GM6uNmf4V0WZAs4cc1HmTdTSlObB6unJsbc4bYR/Xc1cNZIb4w9zs4ym211L8tqCCU0syZmAIEozwcr5PsX/FjtsVWnmtUCO26hz2AneJNEtWHJsq4GoDkDAeiKwLqFAJFsl1lkeaBd3LfgSuto0647BLpIlzzGjRybWt+Dob9MYiaTSo18p2YZ1C20ZosNfzYjcHkN8nuPT6LOen8Vwm+K1BlA/w9LxeoH4t1d5BnpZEPdMyWXYpj3QwOn5XGGFHiL3NzbkXhP8tvODnNHbnjHO0uuc6DeqT00rVs23TFVcLSAejEzzsfVcYYJ9rm1pOBbTJebmNxwJpkKwXI3C9yESDnKmCATTrpeGPzI1V62XD481RUvO5XNWcDLXUL/fMbaz9YBUeE+T/nJ74ZqQ9xthvJ+yNIL9PKPkjuwvXPEMbX60xTdA9p2R5WkHApDOOltJB0NeC5SrhjbDm8Gq9PUkJbFHOK2pul8bb8WuhiTVc+8zKhZlYO9IgnF3J78Y2hlUhyaGLa6rZaJ5pmky0xSwgEJW4N6I5vMZTnUZrGMrrXcQP5ApJB6J6iEusZzAEicb5GUeINn0FxB2cojrkeKJ6T/K7sbbTgIa0L7Itul6vdJFQ4lKnccYAF3sQPSDti4RecjviGFuQsv3/sMVsNCu4sqn6sdaoupK/s6mfJyTsDifsCHZUFu2gPX5XWMWlAjnHGl9gu96qkAZ8C+2dJ2c2TrTF1JeeyUn7woPeXw8tPZMjnbHG0dl693BjQyLNYtaLxqCXa5Vs6UwJvetueeuVguZzufVY1suj09tABYGuWZfOAA+fSC88TcVX1t2pSDoYY48uDtsJeyKS3oqmfppQ+lcOyLwBzhtPM28ALc2IwEPThFqkqrpVvGj68AkgH8bNtk05yNyg0Y+UDDpkVibsCW/H1zs6OZbJp0HtP1Z2YYRrGY8QmKKcm4C+YVdY0lvR+aepI2VDynmFQ+QxZIa4vWz7HFKQTPNGWM2dMpe8A87zrlfqOhKb4nYuicoF0ckZS6KTDWr9cPGAfRYL8AaF1Nh7R9CLy9nS4v9l2fvDCTtCCn/PUPIVzr0vhzSLjMvOMkFY+FLejS2/lMdqm9ZI1e6dkTAMao9qxCo5SyIY4QHUwdXlnqIkvx2TuCci7rUQe1BEpyPlMM45d3XVSIPc7WLvbIlwhDfdON5GqM87nZrydqzr3n0CgQE2v9feGOgst+X2bDCkQVlhQNbLMG+ubnyM2tUbVNV8Lrf2NJV2jPQ4UfFvUP2m9lTqVN7AmlXs5R7TR7vfoNLTs/tS3sM7oIuLj0iwQMYRUv3t8rG8Qc8zb4R9XIPSXV1FVAKQCeRLUj4k2BQawo7ggt/T5Ryp2WiG7JrJYBSMzad/tfimjzIuF/ycLmc7cua71GlwW4NIb0fnnqTk/0y1bwW/phf/lU27WtQaXTdGY0hmxEiJSccpgiFYMMKjfpZg/5IOVvY/Mlxa8By/b7GoxaqKawX27CnA3vUefqJ6xN6CpBIoa++U26s+Ke/GjpQMgtLadgKBjGYVX9ESWZtgX2EBwWlm84QDt/9y1jP8tqCU9/C5Py6Vyem0wt/TS8/k1Nws7YxvZjZNKOblq12OAcMeYnCWc6RzPbP96Z3lF/OT34mxlx5gN9gRXH4538FNtTaksRc4yqajU2rlHBmnd3Ygs6vicgGIG1watkDYHlx2Mc+hd/vruNn2dqRZ4noRqgRdrMns3s7bpcD18j/gesHsY16FSVXfp/SH1+okrrO43TyI3nwIMkGC4fn0L4kuoAWNDlj6b8K+iJTD+NzvU9vC66crxjjNK2feCLrn1DwloI52+6eVaToTm+xZvOJ2hhb+kd6f1Ukv6nNoPWltWd8n23OfxKKxA82LsQNoby6RBthqruTPD3Ik06LFxhRJZ8QylkTBkavFKsPyxerRiN78X5ZE9ILghY/jBCM89y/7qDtBPCkErG52DNCxPgFpnyfy6Iu13dCsncyjJJvXCrBKH4xuwdUOFvQ4CKQ/p7PqVpEDCVvczpCqm0XOBj2XOg1gbLtH49O59gKRMMWoTJQ8uUaqMeoQzlC38wgOIhzhLs5CTFs6uVbCFNHz+sgf4G1vFcBS5xOQ+TVJsZTTem1I43oK0N4VWumMeLhokPpJvD1haKxPQNY3JDnX8U3FxV047fJWpIFBrReQ9cKRCXpZM8VDgzGNLRfz63/PqP0pFagvj85AhHXtRgK070jtN0rU844lNJwevA22QyVQlp3Nc+OqcQahhH2RqPOmJ751pnrcfZonv5Mtm1yBlgZZu0VFv2fYxyyhSRjE/ZFJB6IcGnF/JKBgWXDnoB4FEA+Nb1ji1FnGeraYuYmUfUOLvwHn9gpouDizynlFrW+pvbYRi9BrdiW1rFjWDLAyVzCIb9rFJSNVcApOp6mESpsjEMSnFQ3YQy+wMm0NQupPuxCIc4QYQK8vEvmj1nho2+hdIg2auQn8OmuVCXp9GIIMKr1yXu5gcrT1jipVQF3zKyMsLc2Z9mmCA0vCapEG9K7WKwUr9K4WqRqCK+0fttjNAWmfJjjLyn7Yy217I9IAZjeFjlU5ArJerhY2nQWlKkEt5KMYwHg9Kc7RpKazOfIp4apSEZd7Or1nv16p705sIx1y56pxBpv4PeFJb0WnfZZQfiaPkdHnLvMGrSCgdVdBAETBtU5T3sc7mO9dOKXt3MgOR/GvBuX+SJFzpPaA4VKnWUSatU6DXqVnFPQ5+IoAP9vJVOE43/0iK+dIa26VLgkV8wG8aj2p7bZAagsMy7kyZx4Bh1te8SPpUMyQUzaoG6RZm/kIUdQQyiuphtPHqg+spF0ulM6I3MgB8PynddgztsVuDqB+Eu+w1nuINDBk7Z07wG4MpdH+KRJPC53NhrbZRvKZuhx7/zRhfoTr5lu2rztseB/SwBaTzijsnxuMqa/7Ja0SQ5eNpr2BCgJ5oIKAw6O2oT+CDJWqMcpHcfF7AFPA6tqe8KQD0ZlHSI3+VeMFdG6T60gBpIKA1rVNA5Ed8JATGh3yS1ZcRp1PIB2KGa2k29eEXyekAWTYk4KcE2QHZ0PSgah2QqNWqrapJvbPBkohPFo6BOrf2BUxA+xt35MBB8FCzq/JYJxpmUp+O8b5Hle1J/6NsJpbpVrZEmaaB440kAmSz0lHy4aqb5ZQP4mP3xVGOhjdRWwG/S6jJmplmqbIGvsQhtjNAemfJUqW4pMnSAOZIAVXNlZOr/UtTfssIf4NEM3Rhm/QSFzPgsUCmD5acfUOOk3654liptANOtpPpf22NyKNUWsUDnL4XbMTWb2Nf2cDkhjMXLZx8IZ2LLn93yKtaIWKwvZPofdvQ2ZofpCb8z0lYd+ysc7u4Sdhb2TKe/icY+S20Dpm5TgIFlia6SnocVdBAFSTnBFlHUteXHx9gH84cW8EcV+km5a4J8LehwEoUl4LqbxaqJUuMtOsE9JYQFK6gZ7bS9y/WMUABCZsDaJ8SOhOaVUJlQhbhDWlF/WKayTq8arhzK+THIZNeiu6M77Z3qEC+E9jl3BFI3knYW6kQdwXmbg3AmE3WKzhhgPMNEniaSuPDvo0PnCkUfEVdX7lqR/HJewOQycRvy0o7fPEkfIhrVxjNiCsGQjkILG1kF6pY3UwMx2yTbcE5p4gI2zWiz8aT5BGxVfUB1ZSP4232Q/xW4Oon8YzCge0MqfezZBepef0zOZ8T1583pASrjknKCCmbvXMhN6HNBaLWW+a72FPlTG4rcz5zll6fHPTmWws6dKNd8TbDjX8kSmmcx8nAxoMw3K2tPRsHnF/lHtEcX8UZN58QCj9K7cnvnW2ZsLeeQMqCEyKHIKVbcuJQWMYKRmwt0TFvRaS/2saPb9vrJLupg1kdad9taQ6C2Cm+ZbEH170TKwf0sAQLJ0Rl1/MdzDC4LaAcmT1/hXTjeMytkQr0+gUWsW8jN090x7bAGp0LlAyo9oJfntw4e8Zogk7mxtskbEkDjVsSAejW3ENI2VDbgRCL+hz4LpGqAcie9M7TPpFZpoHjjRaqaYzoZm4z656DQK61E/iW6PrZjum5VypTqbVK3RqkVI4Nk/P7S34Jc1Bbgm7w1qiahxiOz1BGp1c00tudwg6x20NSv0orjmiZqZtSsaRamWgQC2oqTrBp+f1Ff2R4eBji38jrDGsyl5KtudzxQ1vRBrIBEknhKNZfaOZvVPF9LnGSV7rdE8QDdQfO57ibasqNh5nCdSeTmNVggoCKz5/G+gEsFIQmpPfiXWPJSseBZk3B6PTPkssP5c/kjs412ClTeN3sMVDPIdFxCof2KLgymlXi+JeC7XZhUgHo/tSO9AAMIPGsFxT8hUtUXX2KZyxmwNS3llkn0QDvVZbn8bziTPpjLOt02lfOXKC4bYEJu6JSP0oLusbUu5xcu5xSta3KdRPE5L2RztoM/jtwVnHklkdTJNhEQkgk5nVPp38dowtOA23BSCoaFKgV+uXk4ZBY9DK1JO1Iw6VdXBbg/J+AiTTtrf1B440IIJxZD7vVKqDPQq/NYi4P4r6aXzWt8moHLKPpWR8lZTyLg7AjF1AB25rUPqXiXO9szb7IToLniANZIJE4wIAzEvpNXFbg4hvRlI/ic/6Bun9e0r2MbK1950h9oFnuK2B1M8SZlun1vYG6Y1IA8iAZdrx3AF6SieD3DWa1TdTNcZrn2EWD3X5ltX8SMHyZpwXd6/aU32SMkJqMzoVwfV8efLCM01640zjJHDVrNZP4/J8JNMz69vkhruV44V0TjOoeQMqCIhcpPtBZog3yMmwMyjhtgSmf0Xk9C3h1HIpNLPBxGycSH7HBacyMMIgf+un04DLwxaDRj9eyQDjX6qpoKgJChctNPuF1arNvBqUfoQ4UjpkUC/x/AEW0RDaYgbr5oD43aDGmmElByFQs2bFOScdvUeU9wnMlkmb++qBIw1Sq8043Tie+Q3JhRx8AmxCANhpBzDWdwufgKQDUS2RddoFDlN07jyv7mzSm2aaJ7OOJTsEs4Hre9A7cX9UY3CVSmjlpbb17uGGVyKNBQQFcFqmh6nd9JROOrlzmNo9njswVcrgtTMnc3pbLuUDAmbMeeOtzpuq71N6g2ha0VrsuR4+uA//NGBAY0kLTqcn7LNWELh/yEnYF5lyGJ/3Q2pHTBOTBiKhFTMSZ3erUWug5/UR9y1WkyRsDy7+X7ZyfvEdfDmBICgiyP+Jar++4LaA91MenYO+Ha8v0oDSLbBOoZ2sGck6RorfZfVSWBfQ5cPkcFsBxWfuTxRm44ROobNpG2idND6DuyTbxieA8iGB088CRK4r/elV+h5Km0NsBfHNqA5co80PtB5IgxTU0I1VMNK/JMbtdKQAcCMQ/LagpANR1bdLZCwXj4cnOg0QCWzRK3WTNaOZR5Pjd4baO2DcdI361Yj7I6tuFktnl7XuriRyi5ciDWQ0i0f4Ixm9AGkW2jC1e6qYwWmZZteODeEbG//OpmGMmd4JNkeTms/nKpAKAis+ghvoBK1U03iviviWXQUBl/rKKncm7otEnDc5A8md/H6Og9URVJMUKMsu5dlbXRL3RXSntLokZnaWp1qobAiiOSysiXsjOhKa0KKT6400YEgwqGrD6WPV3S0nf4DHbw928dpuQx2fAMJrIZSPCPX+Fdx+9mJY88K96ZW6oewe+5IEca+FlJ7NUXsWhwJDMJ/OpXxEsF9tCTtCiv+XCWrJLLjlV1cJbWFs7v8HkXVq/UzLVMUVQHAJlBtn9cUmB8QJH7czNP0IsYPQCJjlXOX2eoo0yCwYNIbZdibtamHy2zEr947USUv7MrE1ph5ETLjq3f392o56KdLAZljFlY/l9NtgBt1gULpGMvsmCoc4TVMs2kjX3XLgvPk+BQuG9irrWeW3SbWnqcyiIZN20bBue+Y27oZRaxwuHPSIlsZDsNkTnrgvMumt6OR3cGmfE8v+zh0rYThkNUIm8zyDk/M9OflQDOmgteUcS+F7kGmPitqoM0zWjaZ/nmj7OulgDPkwrupasUoItCIQ2MYUlp7JIb+Ls51D/Ti+JarO9o7/QGbNZDApePLZtum6gArKhwTim5EJe8Ljd4XFv460XWGJe8KT9kdRP49vCK1idTAVXDkwZzkFAatFqpbwmtQPCLbRpn+W2ENawrzpfsBKnrzqegn5PbztCsmHYnJPUEAJH1Qrgi2icUHaJwm2E0gHYzI+J/aTOx3seO47cnEUSeSQsSSTNaOV14vI7+OJ++zlEBr/eljCG2GJeyOS9kelHyG24uo5fWy1SOWs7KIXV3BlZRdzyYcX5y71w7h6/0q1WOUsOgvaO1s6VTdWdbMkFZmFxD3hCdZZQHsPt/b+FbElpnauZ1YtVK0hh8b+3r0UaYCiJ9cxK0cZlC4HsLE5b5iVI6jzpje4qu7XNCyv06vApvoH8kBknUGhs3/aNvo2qEjfMZtxJMllBYFVGdMS9kYQD0ST38fnnKBUXy/tTmidrh0XTwh1cseUGsCEqDXIZiWLDCjTIjkbEJ15KE+XV5AwxUqu3BbqZjaYlVyZlCm29SKdEWtcOY087HTZ02ALZDJrpGrh6Pxk7UgftaM1sq7Bn9YYSGuNrutP65yqGxNO8LVSDRibE8agl4VMkEqgtB+tbFbiLLplx2CxOF9BMi2SsSQG7WKhILPeJJ1ZInbZrEQrXXUpbpfDAFRjBpNaqOQzuOPVw31pHa0xdY0BtAY/WnNIdUd841Be70zzpHhapFNol8MYqzSMZiVPbi8N6YxYLVC6wQZr7yIVf5g3UTPSl9bZFlPfFFgFeg+u7ohrHMrtYTZPiKeEK/bu8u6cd3or0lgsJq1xroVpddUsGNDsUQc4b/IGZ2ijoiHuVG5fw19Z1T+QMeXGS/CGdpTUciFPw1cst1g4P4vevwcU1JoUFv6SsSpaGhSBALTsj0o6FJNyGJf6SULxH1mdcc2zLdOicYGCI9dKNEZQLG6ZlRVxdQDlw+5vteKy+6p103lq7M8BR5cdzmo7d3E+BEFGrUEn16pFKhVfqRYo1WKVTq4FvGEe+FoQU9DieNc21MXvL2w5DhQGTibb33rIBDIvyEGsVguUQBRClVai1it1Jr27R8JhqLZBAoeWx3Nn611j17tm9b07DMb5o/ciDWQ0i+i8kfQlrhp7pAHbSLDAZDGD2z7DqhwZwjXUnk7DIgW8BGzqfk3nNk9BHr96Oz+dXrgHVBDwLU866KmrJmFPROKbkaRDMWmfJ5b8L6cpuJqR08/pZim5cr0CkA3bO7q98H6xIWESeCAS8F6kgc2QkiMfzepzRBcn/YZBAZHQwHnTMs1tnuoNqkIyb7Dymo+YJK3mp9Tx9K7HjJYGVEMpGCS/T1jWVoa4XojA9RJLfp+Q+TWp5kbZcMEgb4AjZYpVfIVeoQOlaNZTXXggSwN2EUwCD1AC3os0gMpCqZ8sptPJLlw1zvDDoHSN5fSzm6b43Sxm8VDHzZLqk2Qs8+YR6jdVJ1IGIuv00mVpnR7gc/zQLgWZQf5d+ldJCXscY51R+1jKYXzO95Sqa8Vd8S2TVWOicaFapLJaxlbP4fHQ7gvrCJPAukrAq5HGrDNx22eGqT3OuOJyD4PcNZLeO543OF02PN85s0ibhtF0PopgaNp3pI6bJWqu3I37YV0f7nW5OGxRCZQVl4uI+6MS9kYk7o9KOhiT/C6O+klC4a+Z7TENM41TwjG+Yk6mkaiNGiNkhlA6L6PWYNQYzEbzYyWNdRExdtHHUAJejTQwBCs5stHslQ1oDsAzTO2eLh3m97LnO2aGcI31v2fQjmHGtEdgTGv8O1vCWOTXejx+QAaVvje5g/JhHPWzxOI/shsCqoayeue6WPI5qU6uBViC6C5oDXKjxqDkyTlds4zsvsH0HsHwvOcxY4+HuLC7wCRgsXhr5iY6NzAM66XaqTKGy1hnB3Rx+MigAFqBmaoxTss0yLy5Uw4qQGOZng9Xuan9mTqZ0/eYuWogk1k8KZqsGgX1KBHXiw64XgAXr9loNmqNeqVOI1aLp4TDeQNVV4vzTqRmf5tS8FNab1L7usQNYysZJgGvl4BX6zSAMUmlZ9WOM1I9ctU4gA3IvEntHs8ZYNdPzHfMTub0td8oxiKhH6bnhnaM1HqlQOdZ5rbX/1gWBwiZIITuHgknRWpWmvRGlUjJ6Z8dLOipC63I/TWV/BE+aX9U3M7QuNdCye/ia2+WSybWUthjsVdsC5MAKgFQGRraWFGL3o00SAUBfu/ccJqnrhpnsKGTO0fSeyYKhlj1E4I+9khye8OfmVUnUrBg6IcDOfW/Zwh7WbYMwcdprTCbzHqlTimQs7qZjdE08nd4wnvB0W/6R7/uF73NP2azf6xPAP7VoKT9UWV/53K6Wa55mh8niWD34oEEYBg26UxGrdG5mXSmFfEDhmCNVM0ZYMnmFjnQIBOklWlAuqt5Zdo3D8b44E/xdqSBzJB8RjKa6Tarxinu2RXedI1k9M7QRrntM+zq0b7Q6sa/sZo3D8NzU3uaOlvOcODyevAP8kO/otlg4g3NNURUUI4Tovb7BWy5evvp876bLtx75kroi7eiX/GL3XwPty0wcU943veU8dJho3ox+fyhDxbr0IskYFDrJypH6Dn99GzHNlk5qlct4RJ1HrfZaOb0sUrP5gzl9qDEdzAEy1iS6psl9fcqVQLliljlfM2HsMfbkQbQ0ki143mggsD9NnLncGr3WHbfVDGd187kNk913S2v/ZmK1VhbV+Wm+gcyPb7ZINc+PhkkCHMUZ4CV+xclct9dvxcv39p09uYTZ25vOuf/zOXQ529EvXw3ZvM9QEX8Rnj2tyn0rD7gnsFCnB/CerYRulDyFAWn0qmfJGR/m5xzLMW+0S4XKuZXiNU0GUysDmbuCXIvxcrzBljG56S060V1d8vVQqXFK580r0cahJaGVT/JSEUqCNw/3qR0opk3s9Xj/C7WeEZP+/ViJPOGtK4L7n/24rTjyV1+5VpAkfuYJCuaDaa5Hmbu/8ihr9248+wFK8w8ec7/6cshz9+IfPluzCv+uC2B8a+Hpn0S34lrAvW1lqeZ2QhrIzbGBykB+Zws69vksgt5vH6ObEZi3wAT3UqcGs5IY7FYzEazkq9QzivccJ09yHtY/bU2ANKYjWbR8LxDBYEHoN+kdU8WDrFqxvhds1O5fS2XC0DNGyzz5oEHp6EVBKZFayvVt/pHej2/AVuMWsNc32zOHymhO2/eefbirSet2ozf05dCnrse+RLQZmK3BMS9Fgq4kENqZTMSr/3xr6eksGsvKwH5nCz7WEr1rVKNWL3sSRYLZIYMaoNWqtGIVCgRGRof7xJpYAjWK3V6ld76TgNbUCciyOLSGnUyLbiIGHCpgYssvPLBECBvtXYhUuvkWsC0ZnsjhAGAoYGUGpFKK9MYNYY1vzNtAKQBHjCBciJ/iOEZWcAqQIjcOZLRy6wc5bYx5xonBkHmTToWKfDA1a/6X9PZ1aMb3h8OW0DZzbbJ7N+SQ3bYazNn/Z6+FPz89ciXN5aiZwAAIABJREFU70S/AqIA4naEkA/j6n0rxBNCDGbcLKb/zUOeIA1kgiQz4u7kttLzudnHyYW/Z7RE1nL72WaDySXSaCTqlqjazqRmrVRtQRBCOMFvjqwZyutlFPZX3yzOPUHJP0VtCq/m9FojU8C6KlYN5vSWXczLOU7OPUmpuV06VTtqUFv51016E6eX1RRaXfBLes6xlIp/8geze1SClYvvuZzWjYA0MKyXaacrRtaQVeMJ6gyndo9m9k2VMPi9LFb1KOq8wTJvHiDeVP9AHoyu18u0Lh/BjbEThg0qPbN1IuNUYsh2BGbstJng5/6NeOkO0GZ8Agg7Qsjv4qr+KRLQeYDfDPvDJLBUAijSVP1brODIbOFnJq0RYcMD6gZkhiRMEe3fooLf0/szOlltzJGSwbLLeZVXCvgjXING7+CnsVgsSq684HR6xZV81bzCgtQjmOuZzTqenHuKUnm1YLh0YLZlaiinp+jPjJK/s/lIrVWjxjBRNZL/c1pLdO1M0+QEjVHtW0K7ViSdEYHoOL2J08cqO5tTdiFvtIzOapvuS+ss+D29k9gE6mcvaEVL78zdpw2ANKD+NqggMM1Aiz0/CFeNMwIxKF3jeYPsxklBL3siuxc4b0ANgocRnfUA13QvvdRRUtPZHPm0aM2qt7tHeP2PoXUSx6ro1B/ig7Zd933m/IJvZkGbecmqzRB2hCQfjKFdKuT2sk160/oPDeth40lAPifLPELKPUHpS+lg5PQzckEbLRyyxcHrFLrBzO6sb0kDmd1qMSiAplfp5npmB7N7lPMyo87ojDQKjiz3BKX0XI5yXm6BYZPBxO6cSfssIet48kzLpEGth0xmvQqUds74htgUVo0YzdSd8c05x8mCUZ7JYDLpTXKOlNPLMmj0FgugXGoIrsr/JY3dPWPQ6CEzpOTLu4kt+b+kcwZYa+C52BhIA4o9jzoWe3ZGi/vdAzJveieL6ZyWaX43i05oqv8jE8ObB4Je9b+l89qmV/R2euGyAcMgfYFe1Ec+igvc+q/vMxfsfTNLtZng5EOxIHWmcxbUzVz9e58X3j42pAcuAfmcLP2zxKT9UVlHSNnHUtBWcCqtM65JJ9cABWVeTrtRlHeKKudI0ZczVMnQybUgZdgp9sxisbhEmqxvSNXXS1S2aDQYnFZzuzT/FFXGkWgk6l5yR9Y3JHpBn3JerlfpjRqDUWtA69zwh3kZR4j1QZUKrkyn0OoUOrVQNVE9knOC0pPStoaqoxsDaWAIVnHko9mOxZ7vF1pcqUeApjMD4A2vnTlXP07HN9b+TMUKrN0n3tT8SBmjdm44WhoUZvoy2pO+iAzYDDJmrDDz5II2s+CbIewIIR2MLj+Xx25jOpRnfuBLFXbBDS0Ba+zZ+SWxZ3KW1Fa/WcaSFPyRXu1bAuxUTn+eI03O9+QOQpNeBXQU9E8r1XQntmYfS+EOsQ0aw/wQp+xCbtqXiaXnclpj6scqGDKOBDKZIZN5pmUy6UBU3unU+qCKhhBaQwitPqiy4ko+9ZO4hns0nXzVlvCNgTRoBQEmzXWx53XBG6QGwXQZQ9A3N1c33na1sOanVCzzZs14U/V9Sl9IjU6s3kCxzpAJkrElzbjqxE/DAzb/42uDmU0goDkYRJot+maSD8WW/pXLbmciVmxMnVlY27D/nSSwYkSAbFac/0dabWC5y1cWz5Em9wdKV1KLQb2INDq5tp/cmX00Za531mw0GXVG0YSAUTRQ5VuSfTw561gy7d8i0aTApDdO1Y2SDkVXXC/sSmnpplhbZ3JzB7FpsmYYzRh1ujN3OzYM0pj1Zn7f3Ej6fdDSuNJg3KOU1XnTMMlpmhxP6wLOmxPkNa+2/+Uv0r4jtd8oVnNkG8VVAxkhMVNYH1Yee+ie30uXbz919uaTZ0B65pMgPRPNm7FFmiUfiqk4n89um3G5NLj7/WHH/nsSWBFp5HPS0gs55Zfz9AprGBgqJDT+2HOkyfkupTm8xl7/0IjV7bENOcfJwkkBqGcB+MZho86oEir5w9xuUkv618QeSptRa2R3Mikfxw1kdmkkKsR6prX+q9ShFrbVztuGQRrYDCvnZGMPxYBmDz9ozZuJ/MHZmjFeGxN13lR9n4LZ01YHnEeTGv6XNd/ONBu83U8Ow+C3xx1iF1/JinnL3++FS7c3nUNhxnfT+XvPXAEwY8ub2RGS8k5sxdk84JsBMTmYNrPaJeg/d74VaW6UqARKyAQtacjqrxGr2mLqc09SOH2zYFmHIMgM6RRa4QRfr9IZ9UZWJ+AI6E5u1St14NUNccA4RwRkfEUsPZMjYYpAEXEIQjjIhQDDruTrFCB1Rs6VasRqUOfCDJsNpvkhTsGf6U2R1UadUTItKvgjvSG4UifTwBDgUoMh2KQzonUx1uCD3DhIA8M6iWaqhP7gs2o80XWQzJuZylFe5yy7drw3uKruVyzzZnWBeTU/pY4ktxvtrMbeuMbAFr1Kz2wez/s7NWznrTvPXUTDzG49ceYO4DT7J/SFm4AFYDNgAYh7LTTlHVzVP8WcHow90xsn0zvHhPppSs5kszqnBWM8wdi8rYmnBFq5xqQzznXPFv6eUXmtcLZ9Ws6VCif5g5ndJX/njFUydEotb4Cdczyl9m65cEKgmJdDJshlREDa5wlpXyW24xvmhzlyjpTP4LTF1mcdSx6roJuNZvmctNavrDmihtPHknNl0lkRPa8v6zipP7PTbDDrZJq+1Pbck5TB7B45R2rQGJR8xVgloyGYNj/MNZtWHb6/YZDGYrEYNUZ209Twg6OlsdddPNkepnaP5Q7M0EbnO2dZVaNddytqf6ZimZ4eKje0Y6S2fwq1QpV3/v6RtzZII1UzSvqp38fZM83ceuLs3U0XA569GvbCraiX/VAWgPidoakfEGqul84Pco06LNLMa2fV6wam5MrzTlBSP47L/4la+Eu6faP9UzjbMWXSmwwaPbN5svRCbsHptKLfMwt/Sc/7KbU1pk7BlUEms5Ivr7lblv4VsfjPrLaYeo1YpeQqiv/Mol0vUvFBPg0a5Zz9XQrtZnFtQHnR75lFv2Xm/5yW/3NaL6VdJQQsnAa1frJ2pPRcTv7PoIuiXzPyf6bW+pVJmCAbAVAbz0nb8Q0535MLf80o+SO76NeM3JOp1b4lcu5abOAbCWnMBpOgb27kfioIeKK+rHTOcGr3eN4AuwFk3oyldTWfy0WMaat7wfdwdX7MTmv4I1NM53onLQ0MwXKutIPUmPhZRIDPVd+nz6MWMxRmAp+7Fv7i7ehX/GJ8AHVm/OthqR/GNfrThCN8LD3T69Zy7x6QUWtgtkyM0xjjVcMObbppXM6Vosz/Jr1RMi0crxruz+yi5/eyOqbVIiXq5oTMkJQlGSkbHMztme2cRihnDOxO5lw/C7z0WCwo0uT+QOkkNommBFMNYwPZ3UP5fZx+lk6BGNwsFtRKLJ4WTlQN92d1Deb0zLRMqviLzGkwBKtFyummic7E5nq/ypbI2tHyIRl7sVTBqsS8kZAGxAJNih4wAdpKuOJa10Ezb4qGZmvGee0zQ3FNDX9kgmABLNPTLW0aqCBQ4X0VBBCaGfGUgOZXiD8cdO/lKzaYuf3EOb+nLgU992/Ei76o/x/3alDCG+EZXya1RdZLJkVrSGFb1e8TO/nxkwC6xBs0Budm1Brt6YsA9ZlGr1No9UqdyWC09wIirGjgkFFnhBHXvklnBKxlCJerDWm6k1uAa0drBP78paRnqGBhCDJoDejRJaRnyGF0qBqJWjWvUItUBrUe9dmsYVI2EtJYYItOph3PfRAVBNYGMA7fQjJvUGMar3VqIKoOy7xxr4RZKwgoVh2Mv4Yn28OvgN+S1sBsncg/R43Y43v3hYu3nwL+/1tPngVVAAA98/WIl3xjXgFMM7htQYl7IjKPJHXHt8rnZF5bdcrDe8dOe1wlAJCmeybvJ2oPudU+yvkR3u+GQhqLxaQzclqYw+tJS+NaiXHAGNtHcifivOlnVozwe1icxom2a0U1P6XSvkt2v+b+N49WHU/uCaBphapFvthH+OwjBFMqoWIgt4tynBDy2k2b///2E2cXw8zQKgA+gYTtIUlvRuWfpDKy+wC7u8lLixs+UolinXuFBMwms3CS3xJbN1477CXMthsMaYABbVo8mtm3OjywAcO6bTAoXRP5g7zOWV4rczy9q+VyPnDeuDUl/RePohUEmF5RQcBsNEtmRM246viPQkFiph2b2Z1NF2z+/9jNAbgtgYQdwaSD0cW/Zo4WD+mkmo2SFeQVyx42iIcvAUDnbNLKNAaN3kve6jYY0gB2EKFqonCI/sArCNw3CDHIXaNZfZPFdG4bk9vKHCI01f+egWXeOABq7ek0ZtGgSQv8lo/qD4ZA4A27m1l4MT3m0D3/ly77PnXOxmZ296mLgc9eDXvxdtTLfrGbA/BbA+N3hpIP4ysvFrBbmTqZFoOZRzVxWL8bVwIbDGkssMWg0M1UPTxamtUqTyjezFSOznfMsmijvcFV9b+mYwXWbHhTdTy5269CLwVMgo/kD0TUiJWM4r70nxJAmZmFjBk0/9/v6ctBiGMG+P83B+C2gTAz6ifxDX6V8/1zwBCBpWY+kmnDOt3gEthoSINUEPAuV40rZcgu82ZmtmK46WxO9UkKlnlT+W0S7Sip8Uy2fFL4CDQDEGNmkrLEjVG0xM/Cg7Zeu/OMtTbzLeCYuXDvmSuhIP//TsxmUNAM/2owcW9k5hFSe0yjeFJo0pkwmNngyx02/EcmgY2HNJDRLGLwRtJ7V6ttPPzzh6nd4wWDvI7Z+c7ZkeS2pjM5VcdTsEjoul/SOA0TDzkNBaSqaUAeQ+HF9Kg37/q9eMkXjTEDVGZnEYvZNZCY+Qqa/w/qZibtj8r/MW0ovVc1r4DNmC7zyBYprOPHQAIbD2lgGNaK1GM5D6OCwP2DEzCmZfZNFdPnGibmO2bocU31vyHOm/9wsEDNj6njaV0Pr4IAUuxWzpV2UVrIx/Chr928+9zF25vO3XrizK0nzt5+8rzfU5eXZMxsDYwDjhlc6V8507XjGrEag5nHYKXDbuHRSmDjIQ2gpVEbpsvXq9jz/aOL8xUQvOmdoY3y2mdmyuhdd8qrT/530zyrTqQMRNTqJaDg+br/wRajzsijs2sCinHvBAa8gpD/bzqLeGXQUOZ/Ql64AWozL2TMxO8Kp34UX3+3ktc3Z9Rgjpl1nyKsg/+CBDYk0ph1Jl7n7PCjpqVxRhR3e9DMm5z+qWI6t2VqKre/7UoByLw5RrJ5y/8jG7SjpJZL+YoZyZrzjT38ZUIms0asGi7pz/iZGLn3DsrKvFDK7NzdTUiMGaAyuxuz+R5uIWMm5ztyL7FNMi0G5ZkfAhZ6eDPYaZgENrIENiTSLJTg9LqsGndIsxA4wEjtBpHQrUxe2/QYtbPpbM5/MM2z4Y+M+Y6ZdXTVwID6STDGa4ykJXwUBnjMFqoy33rijO+T59FSZoBj5mUkxmxrYNxrIcmHYot/zxopHFQLVZjFbCMva9jYvU4CGwdpYFAgAX3HhGFYL9NOlQ0zKF2eLO7edg6DgmTeFA7N1oxxm6e6/SvrTqf9p2g6a09RxzO6jWoXxWvv/ycCmSCNRDVeTc/5IyV6v5//i1duL9Bl3n7i3J1NFwH5//M3F2PMtgUl7A6nfhxfc6OU08XCMmbufwqwK2AScJDABkEaxNquEihshIZGtYHdMMl4dBUE7h+9QI21DOC8me+aZZYM9QTQan6k/EcKrNGOkVqvFIBizw/6z2wwiSb5Lbhq4mcRaBwzqGNmdf6f83v6UuBz/4KsTCTGLNYngLA9hLgvMvtoSiehWTwhXEc160HfKXY9TAIbSAJejzSwxWwwy7nSnrS25phqBU+OkiuYDSZ+/9zwwy32fP/o4nyFYWr3RP4gs2KE28aczO5t/Dv7P5J5U/97hqCHBa2+pNJyvy7IBGml6vEaRu7/yDFv3UMpma1emSfO3XkS1DELeR44/62szEjyf8q7uOJfM8dLGar5xfeY5brA9mMSwCSwNgl4NdKgPLusbmaFb37CR2Gp3+FZndOoWgMK9TDFo5kbIKvGGV0c9yDBAuN5A3PN08L+udGU9qazOVXHH3OOztpTqVP5/Q+G/g/xygjH55txNcTPI4Eq86w1JRPN/L/71KXAZ5F0GcT5j2RlBiXuDk8Dyf80bg/boPIWeqi1/Yyxb2ES8HIJeC/SQCZILVIO5nWn/5gQvts3YPPV2EMBAzmdoFo7qI9o0Uk14/mDjqv2guN94+1HMm+my4e5rdPz7dP94TV1vz7OzhtQQQDfaPj/9q7CPaoz7/4phRBcghUq1JWtfN2l3S0tW++2220LBJLgmbi7u7uTEBeixHXc4pmZjLvffM/vvTOTQIFSJAJvn3l2QzLJ3Dkz9575yTlHoXuk/S5iyWq2aCRqZv14yS+ZMW/4+e+CdBl7JDMo//22eARvu4ICZnxj90KOWeLzoRlvxlR8mzeWNyjjS7D4f51fpPDhPQUIrFOmgXhN5kJr6I3E94NBA+Hs6uXsGnaU0hHdaFDZ0k3MetN8z+Q6ShB4HCQHywLFw/wG+nw3b/IGdTCosfm7nKdyeNNwKqPfp1YrUD68LQ2a3glpczcj6lM+Dg9ygVJmhSTzrEP5H7nbx9YxOxCY9EJYzt+SGjyu81pYePj/FFzC8FPYEAisO6YhLFadXMtqphb/nAGuITvcKMhnl7L5bND+K1XnC1UiJTmqISxW1bSMUbQhd53vV3Jl9VFzB5glI9xqqmhkdq6Tc+tyVfPTZ5t2Mr3TtVTBfagEAST7Vy+qxisGC39MIxfMoJTZhCSZMJVx9XeUMrv9Yvb6x7oEJIDBTHTx55m9MR2LDCHumG2IKxQ+yKcDgfXFNDB9mZX1Z3Vm/DM6aP9l6Laja4fnc6e9nc4F77mc+3nS3OA0OaohrGBLw64Yp66/BIH7EckDlz7UnAFuDVXQPz3fxR2Pb2//vegpU960/ZQ33Uj/q6Macno3M8Bv8K1KOB4csO+iwyhzxVTmYuiOa5G7fGzK//2BSUdDM9+Nqz1dxrxBQ3IZnGP2dFzB8LPYGAisF6YhDRAFtLnaa2Xx7wXZXENImtl0xht8di+E76VkHo8dSr9lUOphUkMQBoWOX79+EwQenW9sypuqidl2znQTY8C3rvU/T8/wpvFURp9XjV76oLvOBEGY9SbplLg3rT3nVELEyxQoebfYo2VAK3POz5mcylCi9qCpDISYgVdm0ecZ3eFtwvEFg1L/8P26jXFS46PECKw7BNYF0xAEoVfoGA3jhf9JCz9K8dkOBojLGggnt8Btl8J2esa4+KW/GdPqVacWqMgGGoxqejeaLc0D1zQOoqJm9zOLR2ZusgUD0/yaCVDefJP9dHhCt/9apOSJH+TSDyWsTMNppV13L4x+w8+2xIwczDw3naFsPutrf5+snMokolKm5rcSWvmYWqDEkczr7gqED+jZQGDtmcZiBrlMT3Jb+mcxQQdQx4y8fDx3BrmGeARvvxK+yws+ou4PSH01qu5MuZQjtlqg+2E1WaSsRXrBU7HrfH8Gyuqj5w+xK5DypovHyO5t/73oKVDetP2Uv9DNs5os9zndyIhMEUvQGnIj/USUzYzZkZK5CUoZ0Mpsuxqx0zvaMZU5FJz2WlThZ+ldIS2CsTm9Amdl3gdj/COMwJNFYI2ZxmI0C2hzDb6VsW8G+JH7qeRQd9MZb6dz/lvJbrs3THQhmSoo7fXo6l+KF4ZnyWsTYSW0IjWzeGMkCDhqlIf/Ailv2OVjC72T4rE5RlZv5wZX3jR/k03PuGVSG+71NkcfROTDRb353yVHvOTlu9Pdy24tA/FlyMEsaNvtWpkDQeRUpua3UnrFmGpBgUuZe8GLv48RWB0E1oxpCCuhV+rYLbTin9NtPrvoU6rnc6ehE7LFLWjrpfCdlOjdvuCz6xKYeCgk7fWo0lNZwxm9GqHK0W8xqg38hqd5VPNHWoIMguIRfh0N2XTyRyJbwTZtYyo9G09lDgU16hbVZDt0+U2Ptst0Mg33JqPCNS/heHAg6ZK5+cy1TafhTbIJlpjtDmZetjBmZJSZ9lp00eeZ3RFtwrF5vQJPZZZBxV9hBNYKgbVhGshyF6tGivuyvoiz7Zg5OmabXf2dPUIgy33ZNQSSqd6Ju/F7KesG9Y5kKovBLByepW98W5o/Msr9v0MqbyYbmYK+KXbBwK0r15u+3niZNw1fpPdcqFTPyBwfHchdD5POND820x5Zn/b3yOADl723naegiExHroyfs0eQva1qK3kPBIFW5nhCnWsF8/qEWqjCpcxaXVbw42IE7kBg1ZkGPquaZVPim+H1yR8jO/ct9lXmTWd8Np8P2HohbMe1qF0QGUJmuacciyg4kdoZ3Cwcmzf84SMqYSFUc4pnqIG2cpxDNtMqxqeamIJePrdspNujYgMNbxq+zGj5PncoqEEzryCZhrASJr1JOi3uy+jI+yYp6lXfZc3/ptPXnrNP/rdegiVmhx6T9Px/M7r4i8y+uA4RTYAXzO44z/E/MQJri8DqMg2xZDGY58dm6jzLol/z893hDh9UHT67Tm5B21DHbA/ZMUNSu9ejK77LG83pV8zI7+rGiBIE9BsrgvP+xcpf/mlWPy1/kFtNne/mzbaxx+M7Ok4Xr3flzcn0xq8yuz0q2UVDqkkJOXWzWqzqRSWzYbzyXH7MG37IG+I2zb83apctu2TuDSCnd8kvhed8mNh8qZrbzNSKNQTaFlnb8wo/OkYAI7ASgdVjGqAElZ7fzS79LSviZS+f7W6OVWZbMhV0zFDDfV9A3H5wDclGnZDJmxztouY+nRCz1jTbyX3KbGn+Kt/YlDfXJ2Y7uAtdvAH/+pYfcxvW3/Cm4Yv0pq+zOs4UM7J6ZXShQaa1mq2E1WpQ6+dGpms9y1L+Lzz08FUf1C5Dut0zFNguc/Xb4hG07XL4TkoUGt0Bx8DkPyzznbjKHwrG8galnEWj2njnvGflmx1/jRHACKwRAqvENARB6BTaiaqhrC/igg9ccYi6Kc/ZVJlI0W3fMTsAPrsF/0jtDmsR0QWgIb9vyC45qnkKEgT+Krv88f6gvCkZme3gCvqnOCXD9uHNegmQbvgy4+b/Csdibgr7pgxyLeRaosm/Yl42XNSbfSoeNpi3u3k5uV6DXtlpcrsMhcpcCt3hadP87w2IQ3rM1GORhZ+mtfs1zPTw/9hWXaMTCj8sRgAjcBcEVoNprBarSqTsTWtPOxENG0QOfyq0PhTofDEMstyXd8zS34gu/yZ3omhIPi1zRJ/d5djt37KarXKO+ClJEFg5hnm4r1cob0SD09yykZu/FaNlgbXjm5Ppjf/ObP0pbzi4Udg7qRUoLXoTYSUsRjPYMDeMl53OsRlDOIMNs+eK7bIACJW5Rha7sIW4LzDhYHDKy+E5HyTW/FrCrKYqpmVmnQmXMvazAf8/RmA9IvDEmcZqscqmJTcj6uLfDfTb5UFxstsgbkKrzNAPQVnuqGOWeASZU7mWg8/ug0vtiCWDQsepGp94Sg3Q/li7/Pl30LIAp2pCMDA93cwcj73Z8kNuwxdrQTZfpLf8kDvgVzfdQNcKFDCSQUHdBpV+sofT4FuZ+EFoILJhBqt/VMpQkP8Q+Mrcvl0Wd8Bm+F/2VU5/UtciXWjS4nbZerys4GPCCNyBwJNkGpRPJWIu3LhSEvOmvx+a/3tuOoMUM65+W9whNcS+yhx/ICj5xfC8T1I6ApuEEwtGzV9LpkIJAvxnfFTzR/qhZkEzjVM5PnuTM9vGHvCvXz3lzcm0xlMZLd/n3LpSNd1IV01JjWqQtljNFoNKPz820+R/PeOfMWEvUmBi53QG3hibTlOeO4sSZdyDtl6GdtnK7TJkX1ZwIq3Vq3721qRGqLKasEvmHacz/idGYJ0i8ASZxmw0z41MV7kVhL/o5bPt/IpwKlIxs7ylGn8wOPVYZPHnmYPJ3TK+5K47ZvfHDxpoPAmj8KlLEHi4BtrtvwVKz6LhyQamcHBmqpbae7W66avM+s/TnuDtZFrzt9m9V65zy0bU01KzHrpb4I9pMC0yF3rTwR8z7IinPRLCpsT0djoHIxnYYIaRDCnGtG2XvRiefTyh9mw5vXxMOSO3GKEwwv9hBDACGwWBJ8M0BGHUGHidrKKf0sOOUrxJmtl02tPuyuwYzMS6BCQeDkl/M6byxwJG1YRq4SE9EGHjQKxhV+IGWt8fKxv4jq2ZNj7dypnv4k0kdrb9Utj0ddZj76c1fJnR/G1257lSTtmInC0yyHWEhSAsVpPWKJ0U92V25H+fEv2Gv/+eC2QyJphjbjoL68soTiZ0xzUoc+3eZVDpvhCW+W5c+Xd5wxm3FukCvUJvteJSZqNcXvBxYgRsCDwRpjFpjZxWev73KcEHYc3smt38HzIQt10M2wmO7jaPmSMhWe/G1Z+vmGznGlR/rWN222tILBlVhqlmFjWn/+6X2ts/5j+j98nqp+cPcq9DBsHsTVDetP/++JQ3J9Oavs7q9ihn5fXLWUKT2gBiTIKwmCzyWel4xWDpb9nRr/kuezBvOk3ZdMYL1pfdwbhsp61XRip2UQYzcvv/V0ZHYONMNx/lY2KOue1dj/+BEdgoCDxmpoHaQq6duD6c8++E4ENom9numIlo5lL4TuTKbFfM5H2c1EqpXRiefXQlhFlvnrv1tIU9PwlGJDMIJhuZosGZmRbmgF/dIypvGr7MaPomu+N0CbtgQEYXGCQaq8lCWKFXphQoqNeHy07nJBwPdtgOoZHMWa/Nrr5b3FGvzF7H7PGPtW8wp70Smf9JcoNbJbeRqZjB22Ub5XqCjxMjcHcEHivTEEsGpW6iaijz81hym9mxSuQL+v/LEbu8Yvb6kZo7pJhJuxXTLuNLHmSV+e6Hv+K7VrP1WUkQeBz1GTVngFU2OtPGEfT6uIVeAAAgAElEQVRNcYqHb11+SNu0pq+yutzLmdm9MprAqNSTEhmr2aIWKZlNE9UXi+PfDQpEsZiUzRBZhuoYWDsM2HoxBHplXtG7IbIsdm8A0Az4yoRmvhNX80vxeN6gnC8hZzwrXmf8JUYAI7DxEHhsTEMQhEaiHsrvyfhnTJDLJbu1O3Thfbe4Ba/Q/yccDE59JbLky6yRnAHFtOw+4v+/BidB6CQaZskzkyDw6HyDlDecivGpZqZwcJqV13/z18Kmrx7IphPmMaiOYeUPSGkCvVhtr2PMGrGK3UKrvlCY/HH4yiwZT+iVnfVxcgvYeiFk+1Wobnf7QvoyyTEugQmQKBNZcCK13bd+fnBGJ8G+Mn/tDMD3xgisWwQeE9MQhF6uHSnqS/17JBnMfO050HgjmvEI2X41cpdN/4+uJlEV3+UxKsd1Uu1KB99Hx8ikMT7TBmgPxz2IbyYbmIKB6bl2zlhUW8v3uQ0n7628IecxUMf0yej2OmZpyWqxaiRqbjuj3qsi6YOQoAOXvLch17JNZygQJGMz+Q92cIyjjtkXSO645xxPaHCvYlyfUM4p8Abzo58O+C9gBNYPAo+BaaCaEav6szvT/hEZsBdZANh9RPy2uIdsvxa5G9GMS2Di4ZCMt2Jqfi3mt7EfO80sLS1ZjBbxxMIzEcH5cKRyr9/K6qPmDjBLR7jXJ2Za2XM32TC8+SHnNpvOk2m2vTLXUnbhoIwh1Es0VjPMY0ipP7edeeNySeo/IsOOeiKJDPTKPJH7so/T+QDnC8HbroTtpETu9onZ4w9j/70BsS6B8QeDk9EGc/UvxbTSUQl7Edswr5+rAz4SjMDjQuCRmYZY0it0I8V9KZ9E+O++QHE660nSzGZXP2ePUIf/v0tA4vMhmW/H1p+rmOnhPyFpN4rgVLHKRiey7rHse69LLf4+QgCWBUpHF3onF3r4rLz+bo+Kxn8j5c3JtKZvsnsuVrELBuQsoVFln8dYrFqJmtfBrPepTPowLPjgFZ/tECRj4xi0vmwLktlJgSQIR69sX2D8/qCkI6EZb8ZU/pA/kNyN5LrGx1vjPq6TBP8djABG4BEReCSmIQhCK9UM5veknYgK2HuR4uRqc0VEaWZAM7shZgaMmY+E5hxPaLl6QzAy94RohkzQMij0vFoaNRvvOj8k14LMs3CYXTk21cica+dQU7o6Thf3XKjkVY3JWSKDVEvWMWYDzGM4N+k3Lhen/SMy7AVPX5D6I47ZBCkyEM7tDO7LoTsp0Dvd42ejmX0BwDFHwzLeiik9ld0b074wPKtZVFuMtvLIrMV884gnNf51jMC6Q+CRmMag1lOvD6d/GgWzmdto5kLoCtPMpCOh2ccT2rzrRBMLFqP5iWJg0hhn2jnUnIEnsR/8DP3NrH56wdBkI1PBl6impJp5BXw+AH3MErlXxm6l1XmWJX0QGnzgXnXM5bAdFLvUH/XK9oEHc+LhkLRXo4r+ldkR0DTdydNCC84KTmgWwqDQCbp5jIxbukUVdsx8oqcJ/uMYgVVG4GGZhlgyqPTU6uGsz2OD9qFNM3vTzB+aZuDNTC6tJh8Ny/04qTOkRcIUWQzmJeLJuohYjBbRyBxOEHh4Uszqp+YMMAqHJxuZcp4YloytBNwsVpPepBQq6HVjVe4FkCJzBBz+717H7PAkHe1W1jGJz4MSs+DTtDavusl2rmJObtLBH7eaLUalXjQ0PRrV0ula2nGmRNg/9RCORKt85uCHwwhgBB4cgYdkGrPexG1n5n6VYNPNLNOMrZohaSbpaFjOh0ldoS1SzuJj22a+75MjLFbVjAwboD0c05DxNjNtHBl70ajU26oNgrAYQedPuzFy3aMw/r2goP2XHEllMPNfnsdcDrNbltlm/qiOSTgUknIsIv+T1KYrNaxamnpBAaUtGAgQFr1JSlugZ97qdC2FmdDJtJbvc7hlIxBKhP/DCGAEnhYEHoZpzHrTVC+n4PvU4EOXkdmMLbHqzmrmhbD8T1J6o9tlPPHqWSKiBAFW2djDXWqfzd+iZvfT8gZZZaPzPXzlrMyg1FuMZoIgrGarUWuQTUuGC3tLf81K/CAk5PBVb3saJsgwYR5z3jaPuVsdk3A4JPWVqLxPUurPV7JqaTK+xKACR2fCYjVrjQruIj2rt+dSVcuPeQ4Htqavs8bi2o1yHfbQfFouMvh5YASW/jLTWM1WIX2+/HROyKGrXs62bETKprO2TTPHCsDRsLyPk7sjWuWTktWpZhwvJtjS9GBbmgfbCMjqp+UOcKsnFvqn1fNKsxbaWeRuhUlvErEEg/k9xf/NiHnDL2DvRe+td+pjyL0y2F1G1su31zHByS+H536UVO9WSSsblU/LbGp/grAaLcpJCa9i9NaV683f5jg4hvSWbvgyo8+zRjuvwHtojrc0/gIjsNER+GtMY7VYpVPiG1dKIl728tl6HsW8gzwTdDMrNs2Sj6JqBjnNQPLV6v5HWKzKGRmjCCcI3JtssvqoOQP0giFeHV1ME2hFKpPGSFispDhGr9QJJmbboxvyv0uOfTsgcP8l763nPO17ZUjnv6yP+eM8JuEweEDkfZx84/dSevm4lL0IoXbg6Ay9Ms28glc+2kepaftvQcOpjLskF5xM6zhTImcJrRbsp7m6Zw5+NIzAE0PgLzANQRBqkfJmRH3Uaz7e2215M5RNZ3xBnnkVMt73+se5oIXmDxK7QpplPPEqVzMkSoQVbGnYFeNUHMF5N50QNRviaqZa2VKGUC/XgosMWtMgrFa9UjfVx2uPasg6GRf+IsVvlwfp7X/N5rvs0PlfAS+Zu9YxL4XnfphY51oxUTQs40uWN9ZMFs28YqaJMRgAaWx31DF38E3LD7nc0mGz1vjE3vb4D2MEMAKrisADMw1BIIVmb9KHYX473SlOZ8mrj6+TW/D2qxGkC8C+gMQjobkfJnaFtEg4i6s3m7kDMYIwqg1TLSy867w8dsrqsw1jSkfnbk2qZuUGhc5iMMPqF1oqUy+qWM3U6otF6f+MiXzF22+3h5ezq+dmiMKkbEK+y8ivLHj71WWdPynDRPoY2zzm4+Qbv5XQy0clrEUw+SeLJINZK1RON9AG/evafy9u/Dqr/j5WNyifreHLjN5r1Xqp5o4XFv8TI4AR2KAIPCjTmPUmTist49No/z1gBHANxZr5OJ1HDs02T7PEwyHZ78W1etaKGaI1qWYcr4FZb17om6blDS5fau/26f5Z+SlyNuPV0oVDMxqhyox2iwErYslkMEmnxBOVQ9fdChKOhwQduOyzDS0uA8fY8mPsvst3emLG2vfKkl+OgHnMeahj5CvrGLNVK1TNtbGHQ5va/pt/m7fNnyV+tv9WpOSJ8ajG8ZbGX2AENjQCD8Q0FrNFSJsr+z07+OAVaKcgPyvvzecDt0HeTDQKAkg4HJL5TmzTpWrhxIIZdDNrCYvVbJGxRM+4ARoUMbkDzOLhqWaWjL2ok2hMWhPMS5BTmUGlX2QLe5JaC/+Tlng8JOQgLJU5hjGwuLz5nB/KjwnZfi18lxfYPTj8ylAdk/h8SOqrUfmfpNSdLWdUTUjYtjoGLS9bjXLdbAtrKLCh43Rx0zd/Xsfc0UBr/TFvuoEOAiz8H0YAI7DxEfhzpiHHM81BNREvecFkGGjmtBf4zVwAmtmD8mYOBqe/Hn3j95K5/qn1cHUgDdCYxc9qgkBWPy1ngFM1Pn9rUjklNaoNpDJmCRaXLVqJevIWpz2yPvPzuIiXvP13e3g725bKVohj3MFIBmUtg7e/3XfZVsccDkk9Fpn/SUrTxev0ijHFtIzUYEKZZCWMaqN6Xim4NdnvXdv0bXb9ybQ7WORB/tn0TRYtpdukNmz8Uww/A4wARuBPt5yRgeZgbnfC8RC/He6UzWcgC2DzWX9npNDcA0YA8QeCUl+NrPyhYPImx6h+hITmx/pymLTG2Q4uLfcZsqUhixhG4TC/gSGhCzUilQk4xkJayBi1BsWcjFo9fN29IP3TqIhj3n673L3sHEPZdJayydXHJo65ErrDM3K3dzTKj3HsLscfAE/M9DeiCz9Na7lSw21gyHgSsF6GlQIk9VfppUzRVDOLW0Obbecs9PCpyV03fykkJZkPQjCO+zSeyhwMatAtqrEtzWM9LfAfwwisDQJ/UtNYTZbZ4ancrxORgeZZFDlDLptdIz/qxu0PTHkxvOSLTEbluEFlWNum2UoIrSaLmCZ4VhpoWX203AF25fhcF1/OkxgU+hUbZYRRaxRQZwfzekr+lxX3diAo/EnH5c3I1X/TGW8IWnbz33ohePuV8J2UqN0+UKqigDLwekC+y4nPh6a/HlX8r4ybPvXcRoZqQWE2gLoT6hiL1ajUy1jAMYyiYWp2PzWrn144xK9nLNziT9bSBgMbWr7Pqf/i3pk3fxjbNHyR3uNRoZqUEHjXeeXbGn+NEdiYCNyPaQiCUAoUdZ7lYS9QHF4APk7ng7ddISNn0E5zWP7fUwaSutUC5bqa3xJWQrOgfLojOKlId8koHOLV0sVUgUaoMir1FrS1bDVbTTqTRows/b0qck4lxL4VELT/ss9Wu6s/Wiq7bRgDIZg+YLpM9srQwD/+EOTHZL4bX3oquyu0dbqbr5iRkZUr7K2ZLAalTkwXTDYyWGWjUEE68hoQ+bFKR7g3qMKh6bmbbNBpfnd75s0fCMZR09R/ntb2U/5kzYRZh21pNualBR81RmAFAvdjGqPaMFLcF/dOoM8ON1h4fe6M1+ZzgVsvRdjHM4mHQ7Lei+8IaFLMyiFAfj39RxAEShCgP5UJAsAxOaiI6eTJuWLwKFuWxRAmrVHMFo6VD1S5FyZ9EBZ86KrvDndSGYO2lsmU5fN+W8DVP4x0kdltd/W3Zy3HHwxKfiEs8924iu/ze2PaZ3untGKNxQS9OGjHWax6qVZME0w2Msk65l6LfNScAXbF+Hzf1MItPit/oMvNnnlzX5qp/zwNbGmi24xK/Xp6W+FjwQhgBB4GgXsyjdVsFdDmin9OD3S5aFfPwHgmbIenbQvgQFD669G1p8sWhmbhArT+/jNrTbNd/KdpVGObxBQNTzYxJQyhRqgyqQxIt2STxWgl6ul+Xmtobf53yQnvB4ccvGqzwlxWxpzzJZUxKAETKfx9HQFlsS4BcfuDEg/DUlnuR0nV/y0eze4XjM6phSqzHnpl5N6aTqIRDs3w6+jMkhEQLTnqmHuskkPmTdEwp2piqok538kdCm5s/U8eGt7cr5/W8EV6t1u5TqRaPy3Z9fcex0eEEdgYCNyTafRKfXdia+SrPl7O5L7ZGRBpbrsaudvHFgfwYnjpqWxOPd2kWadabhjVTCzQ84fu9XF7A30fJh/5g9wa6kLflGJaalTBqN+u7SfMepOYI5qoGqq5VJz8UXjYEU+/ne5ezq6Uzfb4SxRN5rfFLXDrpZAd10Dhv9s32tEo2xsAS2UkxyAjmQb3qonCITFTZFTpSVcY8F02WbRCtXB4jltDpecP/lULBngKBUP8Otp8N2+yZmIwqKH1p7yG+6o4237OF/RNWU3YlmZjXE3wUWIE7oXA3ZnGYrRM9/My/hXjt9sDrlbPnXGoZ0jLmcTnQ3L/L3kovVezqF5X45mVz5OwEKpZxQY2QEPuZKTL8mwnV84V68Rqk8ZANsqsZotJZ9TAyjK7ObA671tUxBy+6rPdzaZ52nTGa9NZr02uPlvO+ztfQFvLnhGgjIEixrG4HOcSmHAwOPnFsMy3Y4v+md7qVctrYUm5Yr1MR+5GWy1Ws96kmlPMdvG51dT798r+lLxpuQOs0lF+HW2hhz9VR+tyL2/+Nvte5jTN3+WwCgawLc3KdzX+GiOwERG4C9OAgEasag64HnbU02vLOeQ6A1bNYTtR32xvQPzB4PQ3oxs8qiSsVUqdeWhkjSo9p3JiYgMaoFFz+hkl0CUTjc5pBEqT1gi1BQGplxBPqdaLGAujJX1V7oXJH4aFPn/tziLGJr10C9h6MWT7VdtG2W77tJ8sYkiOeSEs85248m9ze8Jbpzq4KqESIgNIR2crjHyUU9K5bj67fOy2gf89GmV/yjTkHag5A6zy0YXeSdHgNCOnr/NMSePd3DYbv8ociWjRS7W4gfbQpwD+RYzAekDgLkxjMVlmhviZn8f67fLwRAWNfd8MVOJxLoHJqG/Ga2GZtMZ1fgkw600oQWBj2NLYBTFD3BqqcHROPa/Qy3VgHkMK+00Wo8agFMhZTdR678qcrxLj3w0KPngVVpa3nF3pUWaTxWwF6SWS9/sub5TtDYh1AQlU4pHQtNdgGHP958IRchizoCQFmORSmUltkDKEU81MdsUYPX/wT4cxD8gxjruRwxtuNXW6mTXXwRmJaL35vzuVNw1fpvderVbPytZt3bwezmF8DBiB9Y/AXZhGr9R1xjVFvOTl5QwFjdcm14CtFx12AImHQrKPJ/TFdeo2widNq9kq54nXfwQn7JLlDXJraPO3JkEQQ2aRocJiaWnJarbqZJqZwcm+zI7S/2XGvxsUcuiKz07okv1xEhOw9WIwKmIid3nfNokhlTGk+vL16MLP0pqv1NDKRqU8sUFlANkKWiqzmCw6iVZMFfDrGY/YKHOQyn2+sA9v6IK+qYUu3oB/XdM3t9kKtP9eLBmfw2HP6/9Sgo8QI3AfBO5kGqvFKmTMZ30R509OaDbBIkDI9qtRu8EOIG5/YOqxyOpfiheGZ1c/eOY+T+NePyIIQifV8mqo63DXmaxg6AWDrPIx0jZGJ9aY1Aa0SQy7ZGaDSa/USfiLQ/k9FWdyM/4ZG/OGf5DLJZsmBq2TwSRm88pJDBQxkaRHGem1jIoY27T/WGTO8YTyr3N6ItumunjySalBoQfHZQI9nN6sESoX+qe4N2iwVJa9WvYKpPKmfJRfR59t53BLR3ouVDoS0lp+zIWwZ5wgcK+3OP4+RmAjIHAn0xg1hoHszqhXfUiLM6/Ntxc0h0NyP0waTO3RbZTwXWLJpDFMt7KpOf33+WS9yj9CistBTtX4bAdXyhTppRrIo7SiMQyyDjPrTRL+IrNhvCngeua/YqNe9Q3cd3FZ2A+iS4cmxj1gm20SA8GXKz3K0DAGGmXPh0A02UdJdWfLh9N7F0bmdFItKfCEqY+VMGmMiinpLDmMyRtcq7EWNbufVTY628mb7+Qyc/o7z5Y0fJnReCpzwK/eINNuhLMJHyNGACNwdwRuYxqCIBRzsqrz+UEHLlOczkLKmdN5sqAhJzQpxyJrfi0WMzdSHqJZb5rvnVpzVY2tgslHFUw3X8GXakVqo0oP43eoKawWo9moMahFSnYLrcG3Mv+75KQPQsNfoPjCvrI9VhncycBlGTn5XwjedgXpLr2QQdkK6aU9Mybl5Yisd+NKTma0+zXARhlbpJNoSP0NUsZY9HKdmCaYamKxy8dgHXytVyccw5u5Lt58B3copKnt5/xO11Lx6Oza5lDc/ezB38UIYAQeDIHbmMZqtsyNTmd8Fu27w90TPjW7+q+Y0CQcgoJmNKffuKEcdtGoRkIvXDNVDTW7n14wyK2emO3kSVmogoEhP/SswDSMICxGs3JBPtnD7k5qLfwpHY1hrtp2yZzQqP85WxyZj5Obv7NHIHJZvjP1ktT22zzKoIjJ/TCp5teSgcSuuf4pzaLaYrTYNsoIwmwwqwVK4cgs9waNXghOZatc1d3/4chUUH49Qzg4M9vGGk/oWOjiWY04QeDBzml8L4zA+kPgNqYx6YwTVUMxb/p7I7UmuXIWRUo1XQKTX4qo/LFgYXidOgLcE1tiSS/TsUpH7391e4w/pWb1U3MGaHmDjMJhTjVVMDijmpXrxGoj6PlXVDBag0asmrrFbY9sKP5vRto/oqJegy6Z99ZzFJJg7HmXPk7n/ZzdQXSJIi8jdnvbNDHLk5hAmMQcCkFFTHzxycw2rzp2HX2RKdSI1KQVpm2jTGOUccXTNzmc6xOrMPB/FFRpuYOcqom5Tq6cvagXa/D62T3f4fgHGIF1j8BtTKNXaJuDakKfv0ZxOuu1+azfFo+wnRTS1jf+QFDGmzFtXnVq4cZzBzFrjWhU8+RH3IhjmKWjk41MweCMcgpG7mSIMkhhyBkMqmCmeji30m6W/Zad9EFo2FFP/90e5Jwf7ZJB2CVls6u3E2SRoV0ysksGBLPSZZlMi0GTmFBUxCTe+K20P7FrtheKGCAYcnuNWLIYLbpFtZgqmGxgMIpHYGr1ZxYyj0ISj/675CiLXTE+1cqWsRetxvVod7Tuz258gBiB9YLAbUyjEioKvk8J2HuBshmGAUFbL0Xu8gZTrH0BiYdD8j9JoZWNGjfgFpDFZJE8oQSBrD77CtkQq3xspp0rZYk0AqVepgWtJfKjRFtkZgOawfA6mG3hdcW/ZKSfiI5+3S/I5TL4km05S9kMQ34KWiTzdjrnu8U9wPlC0PbLoTs87btkMIZxuCzHugQ6CCb7eELJl1kdgU28FpaYKQKOsXuUWU0WNO2XzXXxuTVooyznydPtQ4k6AUZ7IQjxB918xaRMI1LrpYAkTqlZLxcMfBwYgYdCYJlpCCshYguSPwrz2eFG2QzLzaGO5eZ9gUlHw8r+nSOiCUgXrId6rDX7JRTBqWaVjT7GD/KoRdbPLBnh19Hnb02S8clmrclqRgMYZGxNWAiTzijlL3LaGB2xTYX/SUt4PzjsyLU7Khhb0iWkKbuBbQwQDGlN5hO9UtVvF/bHHwxOOhqW/np0wYm0+vOVI5l9gpE5MFpeMYkBjzKxWkIXTDWzmCUjSN6/voYxtronC8JsaHkD3BrqzE3O4ti8akZuUOjRMh6sSqxzafCavafxA2MENhQCy0xjMVkmezjx7wb6bDvvtQlaZ+H21lmcS2DqK5H1rhWajWmsCwkCSj2v7pESBCDgC33ophdA+TLXyZMyReoFhU6qNarBUJmwIqtjE9iR6eRaCX9xrGzgxpWS/O+Skz8Oi3zFO2DfRe9tEA/zhwrGDSqYbZdDt18L30mBsMs9KyoYcll5fxC4k70Qlv5GdN5HyVX/KeiP65zu5Em5Yq0UcQwyWoYiRmtUTEpnO7jcG1Q7x/Q9ejvrcf0FYOjsflruAD1/kFk6OtPOXRybV07LdBK1UQkEg3fMNtQFBB8sRuCBEFhmGrPexKgfj33T33vrOVJGE7HLm2zXxLsEpr8V0xnQpJfrHuivrr87gS1N90MlCKArIz1/kFM5PtXMEgzOKPgSvVxr1tnLFxi/gCrFbDCrBIqZAf5wQe+NKyXpn6H+2P7LfjuQrTIM+cFZGc1gzpIzmJUVjF0N4xdLBpHdvkuW8hLsK5d+ld3mU0+vHBezRHq5zpFJs0QQFoNZK1KJJxYmG5l2M//1VcSQixKsslF+PWOuhw9CIhnAaCvF0Bxr/b1x8BFhBDACjwGBZaYx6UzU68Mxr/t5bz3n7XQueNtlMiAgdm9AvEtg5tuxPZE39Rs2lspqskgYwj9PEEBzF0ftwiwZIT0uldMyrUhtkOtMWpMt1NJitaDyRa/QyabE9Lqx5qDq4p8zMj6Ljn0rIPTwNd8dbuDb72RnF1LM73TeNoP5YwUDi2T+kKlMhl0eQDkxxyKz3o0v+md604Xr1NIRweicYkZuUOqRyzJBWKwWo8Wg1MvYizPtHG4NlQnT/vUyiSGrQHreIFSBZaML/dOKSalGqNLbqkAz7ow9hjMY/wmMwEZAYAXT6E20mtGYN6Cm8dlyPmT7FdKBhmSajLdiu0Jb9IqNWtMQFkI9J79PggDZ1YG95OsTUy1Qu8h5Er1UY9IY7R+60esJ+hfCpDcpZqXTfbzhwlu118qyTsbFvRUQcviq3y53MnnMZkdmH/KTa8rkFhkM+VGOMtLzrzBXJjlmf2DCIVuXLP/vqXWuFQPJ3TM9k+plO2c4DBD2a42qOblweJZXR2cWDT9IItnj6oD9yd9ZUQVOt7Il1AXVjMyg0MEOnl1FtBFODXyMGAGMwGNDYJlpzEYzp40e/06Az7bzvlvcQrdfczANzGmORda5lqsFyo36OZRYMsh1rPKxiaw+26iAHLrkDzGKhnk3wNpSyhKp5hQ6sdqg0Jm0RrJ2AS29yWLWm4xqg1aiFlDnhot6a6+WFv6Yln4iKvbtANKx39v5nJeT67Kh8iboj/mCDsYjcOul4O2wpkxuka2YwSxXMDY1zEsRmW/H5v895frPhYPJ3TO3JqUcsVaMvGrIMYzZajaY9VLt4uj8ZBOTUzm+HjQxt41eSkamWtmL4zDYhypQobOQo5f1lf392M4f/IcwAhiBB0FgmWmsFuvC+Ezi8RDfHW5+zu6hO68tSzf2BSY+H1r0WTq/lW3Wb1SptsVgFgzOMEtGWOVjvFradBtHODQr54qRK4yBnEWDAIVcG0O1i9loUgkVC2Mz9NrR9uiGkl+zUv4vPOo1n6D9l/12IgUMLCjf7ti/GXjafytM+EO2XwvbSSHDx+7cIltRwSQdDUt7PSr34+Tq/5X0RLRxG5mKKRnZInP4CFjNVr1UK+eI57p47Ipxev7QuhD2Z8FqMrtiDMwxkYebTgJVoJXcgsPs8iCnIL4PRuAZQGCZaZaIJcW8LO+b5IC9F/23LueekZOD+ANB6a9HN1+6vkgTmA1mUoe4sfAhrIRBpVfPKzVClU6iNSr1tsIF1pIJqxmcx0w6I9xHrJofnxkp6q33qij+b0bmybiEv4VEHvMOdLnks/28bfoCChhwIfPa7Oq9GfqNfs4e0B/bdoXcUY5ESv4VFUzAHTOYlJcjMt6OzfskpfKHgr7YjskOrpgpUgtURo0R1tiA6tAoSGOU8ySzHTxeLY1VNgocs3buZI4FPGgzVk3MdvFlLBHgKdU6PNw21rsCHy1GACOwCgisYJqlJb1C2xJ8I/woJWD7RUfCJlwf9wZABvDhkOz341u96gSjs2adaSOSDbkk5lBpIGdLuJprZZpFjpDfxR4u6m0KuOI7SasAABHNSURBVF7wY2ryR2FQuxy8AtqXbefJJBgKMupH+2PIq9/pvN8WdzI42eYTs8s7arcPyS4kbsv/6wKZCwmHQ2ybyh+n1PwKFQyngSGflOgVOmjW2ST9wDFGlUE1IxMMzvBqaUjVP7CW9peo5UjLHeBUjdtUL7NI9eJYwMPlyyqcrPghMAIbFoHbmMZsMDGbJhKPhwTtvhS209Mxp3GQTdLzoVnvx1f/XjxePKhakJv0JhQ5vAGePbh+kVWL3mTUGPRKnUqknB2aGinqa/S/XvZ7du7XSamfRMS9HRB+1DNgzwVgF3JzzFa7nPHa5ApJMLA8BvrKFdMXUgGDci0dMn7UHIslPZWR0DL1FdgiKziRWvNr8WBKz3Q3z1bBqKGCQUabVqvJYtaaVLPyhb4pfj2DDWOYNeqSObwP8gcZxSP8eoZoFFQv0GnEqpcN8H7Hh4gRWF8I3MY0hJUQ80TFP2eEHfIM2+UZtQfSz1beoLI5FJz0cljmR7HV5wupVcPSSTHIudehGAJdvYFgUKSYRqxeZAunernU68Nd8c3VF4pyTsUn/S006lWfkENX/Pdc8N3h7u18DhnDoNGLfW0MmmNgD+Ngl6vk8lgElC++5PTFZhLjwGoflC+g5D8SmnIM+fZ/kdl44fpASs9UJ1cxKzeoYE15RQVDGNVG1ZxCNDIHapjSUVre4Fq1yGw7eMXD/DrGfA9fyhBphaplaeo6fKHX1wmFjwYjgBG4CwK3Mc0SsWRQ6Yfye5LeC4lw8YreeyfTQBttX2Ds/oCYg/5xLwekfRxV/FNGW1gdr4OpFCgMKr1Jb7KYzFaL/TJ6l0d8fN9CekmrxWo1WyxGs9lggimLGuoVrVQtmVzkd3NGS/s7YptqLhUX/5KZ81Vi2onI+PeDI4/5BB+84rfTw3urrXChbAZ2gRsqXOxzF3f/rReDtl5Gm2NIvY/YJWqPL1iQrSxfyFxLuxcZGsDE5H2cXP51zk2/Bkbl+MLwrIwv0YrVJh2wMoxhLFDBwKbyjHyhb3qygcGpQotkq66GcYxeQPVSOjrXPSnnS9TzCpvqxWHT+fheN/yXMAIYgWcNgduZBgk1FHOy2sulcccCY/aDt+bKmsbxdcxev8g93qF7r4XsvxrxolfS30IKf0xtDbkxXjk4M8CT8hd1Mq3FaKMcNBd5tEa+vUCBGsVqJdnFqDVqxCr5tERAn5/q47KaJoYLbnVEN9ZcLin8MTXtRFTC+8HRr/uGveAZuP+S3y4Pnx1uYH+AtsVW6l0om9HQhdwZQ1N9tDZ2NXQnCF8iHbXLHdRCVjArypfUlyMy3oop/DS99kxZT2Qb+wZNzBRqJRpwE7DrSIBlLFaDQq+ckQmHZyfr6WAYsyYVTFbfRFb/svfB0IxyRmaQ66BCtR/ts3Yy4OeLEcAIPCEE7mSapaUls9E83cst/Sk78ZXQuINBdyWbmL3+0Xv8InZ5hey8GrjjUsDOC8EulyNf9kl4Pzjjs5j875LLfs+uvVbaldAyXjHI72QL6POKeZlWqtbJtTqFVq/U6ZU6g0oPNzW6kV+r9HoV/Eiv1OkUWp1cq5VqVEKlhC+aH5vmdbKoNSMDuV0d0Q31XuWV5/JL/pdZ8ENqzqn49E+jkj4Ii307MPIVn9DnrwXsvei7w81n23lbQ4y0GkNVCzlugaoFTVxgYcz5YuA2KFxCdsBSsl31Av78d6ld9gWAjzJyIUs6Gpb6SmTmO7G5HyeX/ju7zauOWjwy2zctYYtUQqVBZbAp+ckRkcFsRGL+2S4ev47Orlh1KQwSVFJzkOFY8Qi/FiREK70P0NE+obcZ/rMYAYzAM43AXZhmiVgyagzM+omibzKSj4XHHwqGjpljCLHii5i9/pG7fcJ2UoK2X/bfdsHP2cN3m5vfDjf/XR4B+y4FH7gS8SIl9k3/hPeDkz8KSz8RlX0qoeg/6eVncqsvFNVdK2vwrWwOuN4cVNMSXNMcVN0UUN3oV1VHKb9xueS6e2H57zlFP6blnEpM/ywm5ZOI5A/DEt4Pjn0rIOoVn/AXKMGHrgS6XPTfc8F/lwdJKl7OrrAhBqRiG7R4bjrj+RzcyFmLj5ObL6yKeQRuvWirWsAymRKx0ytytw8Z/WLviSFN5YpnCg4x+5FR/yFYHkt9NTLrvfjSLzMb3Cp6Y9rZdXQJSwTNMa3R5uXsMEPTmbQilYy9ONfF51RB+BgtZ2C1ZzCQmtPPKB4Bv+R2rpQhhCVvtQHCBez6oWf6JMBPHiOAEXjCCNyNaVDksE6uZTfSKn8uSH8rJvH50Lj9gfctbrzDdlJCtl8N3HbJ39nDd4ubzxaoJ3ycz/lsPe+z7bzPdjffHe5+uzwC914MPnA55NDV0CPXwo56hr9ACX/RK+Il7/AXvcJfpIS9QAk94hn6/LXgQ1eC9l8O3HcREYm7z3Y3n21u3tvOQ/vL+ZyNURCpgCzfFu6C8l02ua6oWmCSD2FiYMV/JWT7NTTMByll5C6fqD2+aOJic03+41R/uXZBg/2Mt2JyPkgs/Cy95teS3uib7Dq6YGRWxhNrRCqjxkD2x+wbbhaT2qCclgkGpiebmNxqKqt0VXUwttFLLhiOQWxlN1/KEqnnwf4Aq16e8AmF/zxGACNwFwTuzjRwR1TZTHVx6z0qso/HJ78QFn8wOM7lnsVN9B6/qN2+Ebu8Q3d4hmy/GrT1kv/WC35bEOs4nfd2ArMWipMrGopAoCdZeXg5ud52s3/fNp+Hf55xqFigRiG9kJFkkpyvkMJJ783nfZyAVPyhGwYryKhqQQ2xHRTkMwZ7Yit0lH+oWuzWluTaWOLh0OQXw9Nei8p6L674ZGbt2bKukGZqycjcwIxyVq5X6CDR0j7PIIf8Zp1Ru6iWscXzvVO8WogdgwFM9qqmW6KoygF21fh0G0cwMC1liWD0Qqpe0C71Xd4C+FsYAYwARuAJI3BvpkGVjVFjFNEW+hM6S77IzHgrJgn4Jug+9U3MHv/oPb5Ru30jd3mH76SE7fAM2XE1ePuVwG2XA7deBO5x9vBzdveDogfqHh8nx+2cj9MdN/uPtpz32QIqFt8t7r7O7n7OHv7OFxCdXCQZBUYs26/ClGWHJ+n+ErHLm2yIRe1ZHrfc2QDcB67J8S5B8fuD4g8GJz4fmvxSeNrrUZnvxuV+nFT8RWb9uYr+hE5OPX1heFbCXlQtKPUKvcUIHSdSwG81WS0Gs1FlUPClC/0rypeC1RLBkKoXNHoB1UsdHUINpqRgOEY6IBixX/ITPoHwn8cIYAQeAIH7MQ3561aLVSvR8NvYrZTaghOpaa9FJR211zf32EyL3RsQs9c/Zo8flBFw843c7RO5yztip1fYTgrcdniG7rgG9LAdeCh42z1uJIVsvxq642qojUg8w3dSYLgCHTBvaIKBqAXVK+Rj7QF3ZNQKu71qQbwC45Z9geTEBYRBR0JTXkKFy7vxRZ+lV/9S3EqpG0ju5tTTF6kCtUBpUOpvcyAmFZYmi0GpU88rxFTBbAcXpi/Fw6tcvthUL0XDnOvjM+0cCUOoFSHVC1pKXo/ypgd4L+K7YAQwAk8rAn/ONNBIIwijxijjS3hNzDavuuLPM7Pei099JTLpSGjCweD4/UGxLlAf3Fk0LE/U4dJv2+PaAy0s8gaTkt322y7fqDtujh+husTxW8srYcuilruRioujXgkCUjkK3bCUlyPSXovKfCc254OkghNp5d/mNl+pGUzp4TYw5gdnxAyhYkamEWuMaoPVbIGnbRe+gCWaxqieU4hG56fbOPw6Oqdyglk8Ql+tBWWgFrv5NLNkZOYmR84D1QtZvgAdkk42T+v7FD8vjABGYCMj8EBMQz5BsHw0mNUC1VQnrzemvebXkvxPUjLejEl5OcJGOQeC4lwC48jqYZlm7sNAj/wj9FhxKDosDgkn4w8EJxwKTnweNsRSXgpPfTUq483orPfiCk6kVv6QV3umrNWztjeug14xNtc3LZuUahfVBpXBYrCrTR1GzlZ4snqZVjUjF1MFc508bg2NWYIG+zB6Wa04S1C99FHBLxklfg7MKHgSg1xr1hptU6JH0ylt5LcuPnaMAEZgwyDwF5iGfE4EQZh0JrVQKWYIJ9s5g8ndtWfKij7PzP0oOevduPTXo1Jfjkg6GpZwOCT+YHD8AZiCAP24BMa6oO01excLaqAHvKFfByLZj2YqB2CsEn8wOOFwyMpKJf3N6Kx343I+SMz/JKXws/TSf2fXninrDGoezenjNjLm+6dF1AUJexGqlkUYY5B1wLJiH1zRLGadSSfRyFii+VuTU81M3g0au2Icapf81bKHcahe8gaZaPQyf2tSMYlGL5D4abSaoNjaMO8vfKAYAYwARmBp6S8zjQM0MiLMoNSr5pXzQ7P0irFbUTebL1VX/1xU/HlmzgeJme/EZrwRk/ZqVMqxiOSXwpNfCEs8Epp4JCTx+ZCEw8G22yEoQWw3xzcPQ1ECN7h/aPILYVCgvByReiwy9dXI9NejMt6MyXwnLudviYWfppd/k1v9v+JG98o277pb0e1j+YOcBsbcwLSUK1YLlDoZCEdudytwPIMlwmI1aY06CRQuErpgrofPr6OzysYYhcO03IFVXhuD2iW7n1E0DKqXmxzxxALpB0OK9jdqAN0y2PgrjABG4NlF4OGZxoEZdNWMZr1SrxGq5JNSMUO4MDw71cllVI0Pp9/qDmlpvlxT/b/isq9ySk5mFf0ro+iz9IITqQX/SC34e0r+31PyP0G3v6cUkLd/pBacSC38NK3on+lF/8ooOZlV+u/sqv8U1J2raKHUdoe1DqZ0TxQOsWvp0128+cEZ4fi8mCmS8cXKWblGpNLJdEYNdMP+dG5h1plEo3OTTSxuDSpcSkboBWgpObPvT9KLH9Md0Oiln5Y7SM8fZJWOznbyxNQF9ZwcVC/gl2zGg33Hewx/gRHACGxoBB4D09z2/JHrJWEhrGaUiKwy6GVazaJaLVAqZ2QSzqJwYmF+cGbm1uRUJ5ffxuY1s7jNTG4jg9vM5LWw+K3syXbudDdvrn9KMDIrogmknEXFtEy1oFALVVqxRi/Tgo+n1mg2mEGNj6w8ybXj2w7jT/9BLJk0huk2Di13DXJfyPE+q3SU38BYQKoXvUwLqhcyogY3x/705cN3wAhgBDYUAo+bae775BEDQbSlWW8y6UwmrdGkgZtRYyC/gO/oTGa9yWIwW4wWm7X+k5lKWAxm4fAsLX/wiVcwK1UvRcP8eqR6mZRqBCq9TGvSGC2genkyT/K+Lwf+IUYAI4ARWB0EVpVpVucpPeCjWC1WBV/KKBx6gkxjH72QUZUSulA1rzCiVbeHqcMe8Inhu2EEMAIYgXWGwLPLNEvEkl6qZZWOPkamIQWVNNIvuXRkupUtnphXzcptqhc9dPzwbH+dnQL4cDACGIEnjsAzzDRLSyatcaqVTX0s4WNIWcmuGOPX02c7eHKe2CDTkkvJ2C/5ib+L8QNgBDAC6xuBZ5ppLCaLmC6gFzxMA80RVckoHOZcn5jvmVRMSjRCFawmq/QWI1a9rO83Pj46jABGYBUReKaZhiAIrVjDrhj7C5r/rD7SL5lbDaqXxfF51ZzcQC4lW8AWDTfHVvHdix8KI4AR2BgIPNNMs0QQRpWeX88AkeY9VDK20UsuiqosQaqXCYFiSqZbJFUvkNy8MV5qfJQYAYwARmCNEHi2mWZpyaw3zfdMgqrmj0yDRi+sslF+PWOuZ1LKFGlFajPyg0GjF7yXvEbvWfywGAGMwEZD4FlnGqvJImWIYFSDNpKpaG2MXjDEKhub6+bL+RJQvUiRpc0D+A5stFcfHy9GACOAEVgNBJ51piGshFakYpaM0POH2JXjUy1sCU2onleQUZWOVM3VeCnwY2AEMAIYgacUgWedaZaWlixGi3pOrkK2aXq5zqKHBAE82H9K3/D4aWEEMAJrgABmGgAdFPtWtDm2Bi8BfkiMAEYAI/CUI4CZ5il/gfHTwwhgBDACa44AZpo1fwnwAWAEMAIYgaccAcw0T/kLjJ8eRgAjgBFYcwQw06z5S4APACOAEcAIPOUIYKZ5yl9g/PQwAhgBjMCaI/D/k1/x80Tt1EMAAAAASUVORK5CYII=;" vertex="1" parent="1">
          <mxGeometry x="120" y="206.53" width="441.84" height="153.47" as="geometry" />
        </mxCell>
        <mxCell id="9ZzvRII4eZnpE7S6dJO5-3" value="" style="ellipse;whiteSpace=wrap;html=1;rotation=45;fillColor=none;strokeColor=#b8589d;strokeWidth=7;" vertex="1" parent="1">
          <mxGeometry x="310" y="260" width="200" height="80" as="geometry" />
        </mxCell>
        <mxCell id="9ZzvRII4eZnpE7S6dJO5-4" value="" style="shape=parallelogram;perimeter=parallelogramPerimeter;whiteSpace=wrap;html=1;fixedSize=1;fillColor=#d3a0c9;strokeColor=none;" vertex="1" parent="1">
          <mxGeometry x="414" y="320" width="70" height="40" as="geometry" />
        </mxCell>
        <mxCell id="9ZzvRII4eZnpE7S6dJO5-5" value="" style="triangle;whiteSpace=wrap;html=1;rotation=-30;strokeColor=none;" vertex="1" parent="1">
          <mxGeometry x="446.54" y="305.39" width="40" height="50" as="geometry" />
        </mxCell>
        <mxCell id="9ZzvRII4eZnpE7S6dJO5-6" value="" style="triangle;whiteSpace=wrap;html=1;rotation=-30;strokeColor=none;fillColor=#b8589d;" vertex="1" parent="1">
          <mxGeometry x="450.03" y="307" width="36.96" height="44.61" as="geometry" />
        </mxCell>
      </root>
    </mxGraphModel>
  </diagram>
</mxfile>
